<?xml version="1.0" encoding="iso-8859-1"?>
<!-- Uploaded to: SVG Repo, www.svgrepo.com, Generator: SVG Repo Mixer Tools -->
<!DOCTYPE svg PUBLIC "-//W3C//DTD SVG 1.1//EN" "http://www.w3.org/Graphics/SVG/1.1/DTD/svg11.dtd">
<svg fill="#000000" version="1.1" id="Capa_1" xmlns="http://www.w3.org/2000/svg" xmlns:xlink="http://www.w3.org/1999/xlink" 
	 width="300px" height="200px" viewBox="0 0 606.268 606.268"
	 xml:space="preserve">
<g>
	<g>
		<path d="M577.09,294.952c-8.902-11.657-19.525-21.806-31.574-30.165c-5.66-3.927-11.576-7.417-17.707-10.451
			c0.15-2.826,0.227-5.654,0.227-8.48c0-21.506-4.223-42.391-12.549-62.075c-8.032-18.991-19.522-36.038-34.152-50.667
			c-14.629-14.628-31.676-26.119-50.666-34.151c-19.685-8.326-40.569-12.547-62.075-12.547c-26.931,0-53.566,6.856-77.027,19.827
			c-15.18,8.393-28.937,19.277-40.637,32.067c-15.767-6.681-32.702-10.407-49.999-10.92c-1.357-0.04-2.736-0.061-4.1-0.061
			c-18.524-0.001-36.579,3.659-53.666,10.881c-16.412,6.937-31.197,16.838-43.944,29.429c-12.772,12.618-22.86,27.306-29.985,43.659
			c-7.434,17.065-11.287,35.156-11.452,53.77c-0.019,2.129,0.012,4.261,0.089,6.39c-14.664,10.479-27.188,23.794-36.772,39.202
			C7.719,332.172,0.596,356.979,0.501,382.396c-0.068,18.411,3.544,36.338,10.738,53.284c6.879,16.205,16.721,30.801,29.254,43.38
			c12.687,12.734,27.479,22.755,43.964,29.782c17.134,7.306,35.262,11.009,53.878,11.009H464.86
			c19.084,0,37.654-3.798,55.198-11.287c16.889-7.21,32.031-17.492,45.006-30.562c12.824-12.915,22.877-27.899,29.879-44.536
			c7.316-17.381,10.957-35.766,10.82-54.644c-0.109-15.405-2.719-30.548-7.752-45.008
			C593.143,319.832,586.104,306.756,577.09,294.952z M464.86,477.012H138.335c-51.952,0-95.188-42.505-94.995-94.456
			c0.134-36.159,20.666-67.507,50.687-83.145c5.904-3.075,9.255-9.581,8.086-16.134c-1.032-5.781-1.547-11.741-1.493-17.83
			c0.465-52.505,44.016-95.282,96.201-95.277c0.94,0,1.892,0.014,2.837,0.042c18.538,0.55,35.75,6.359,50.215,15.975
			c2.64,1.755,5.631,2.603,8.581,2.603c4.893,0,9.674-2.333,12.555-6.732c20.821-31.793,56.742-52.802,97.583-52.802
			c64.396,0,116.6,52.203,116.6,116.6c0,7.965-0.81,15.737-2.34,23.248c-1.568,7.698,3.029,15.362,10.562,17.594
			c39.974,11.845,69.196,48.692,69.511,92.435C563.312,432.965,518.695,477.012,464.86,477.012z"/>
		<path d="M464.86,520.352H138.335c-18.687,0-36.879-3.718-54.075-11.049c-16.544-7.053-31.389-17.109-44.122-29.89
			c-12.578-12.623-22.456-27.271-29.361-43.537c-7.22-17.009-10.846-35.003-10.777-53.481c0.095-25.511,7.244-50.408,20.675-71.999
			c9.59-15.418,21.932-28.602,36.688-39.189c-0.071-2.058-0.098-4.123-0.08-6.144c0.166-18.68,4.033-36.836,11.494-53.965
			c7.15-16.41,17.274-31.152,30.092-43.814c12.792-12.636,27.629-22.573,44.101-29.534c17.145-7.247,35.262-10.921,53.85-10.921
			c1.38,0,2.764,0.021,4.126,0.061c17.232,0.512,34.002,4.152,49.854,10.822c11.775-12.815,25.408-23.549,40.525-31.907
			c23.535-13.012,50.253-19.889,77.269-19.889c21.573,0,42.524,4.235,62.27,12.586c19.051,8.058,36.15,19.584,50.825,34.258
			s26.201,31.774,34.26,50.826c8.353,19.747,12.588,40.698,12.588,62.27c0,2.703-0.07,5.453-0.21,8.179
			c6.037,3.006,11.915,6.484,17.476,10.342c12.091,8.387,22.751,18.572,31.687,30.271c9.045,11.846,16.109,24.968,20.997,39.003
			c5.052,14.516,7.67,29.712,7.779,45.168c0.138,18.946-3.517,37.397-10.859,54.842c-7.027,16.696-17.115,31.733-29.985,44.694
			c-13.02,13.114-28.215,23.433-45.164,30.669C502.647,516.541,484.011,520.352,464.86,520.352z M196.83,127.829
			c-18.464,0-36.451,3.648-53.471,10.842c-16.354,6.912-31.086,16.778-43.787,29.324c-12.727,12.573-22.779,27.21-29.878,43.503
			c-7.407,17.004-11.246,35.029-11.411,53.574c-0.019,2.093,0.011,4.235,0.089,6.367l0.01,0.269l-0.219,0.156
			c-14.744,10.537-27.071,23.678-36.639,39.059C8.192,332.357,1.095,357.072,1.001,382.398
			c-0.068,18.342,3.531,36.203,10.698,53.087c6.855,16.147,16.662,30.689,29.149,43.223c12.642,12.688,27.38,22.673,43.806,29.675
			c17.07,7.278,35.131,10.969,53.682,10.969H464.86c19.015,0,37.52-3.784,55.002-11.247c16.83-7.185,31.919-17.431,44.848-30.454
			c12.778-12.869,22.796-27.8,29.772-44.378c7.29-17.318,10.918-35.637,10.781-54.445c-0.109-15.347-2.708-30.436-7.725-44.848
			c-4.852-13.934-11.865-26.963-20.847-38.725c-8.872-11.616-19.457-21.729-31.462-30.057c-5.61-3.892-11.547-7.396-17.644-10.413
			l-0.295-0.146l0.018-0.329c0.149-2.816,0.226-5.66,0.226-8.454c0-21.438-4.209-42.257-12.509-61.88
			c-8.008-18.933-19.463-35.926-34.046-50.508s-31.576-26.037-50.507-34.044c-19.622-8.299-40.442-12.507-61.881-12.507
			c-26.847,0-53.398,6.834-76.785,19.764c-15.125,8.362-28.754,19.117-40.51,31.967l-0.239,0.261l-0.325-0.138
			c-15.833-6.709-32.594-10.37-49.818-10.88C199.563,127.85,198.189,127.829,196.83,127.829z M464.86,477.512H138.335
			c-25.548,0-49.644-10.062-67.848-28.334c-17.921-17.987-27.74-41.648-27.647-66.624c0.131-35.254,19.656-67.282,50.956-83.586
			c5.805-3.024,8.95-9.294,7.825-15.603c-1.049-5.876-1.554-11.906-1.5-17.922c0.226-25.485,10.472-49.521,28.852-67.678
			c18.338-18.117,42.432-28.095,67.841-28.095h0.008c0.945,0,1.901,0.014,2.852,0.042c18.024,0.534,35.479,6.087,50.477,16.058
			c2.479,1.648,5.351,2.52,8.304,2.52c4.932,0,9.469-2.432,12.136-6.506c21.746-33.205,58.382-53.028,98.002-53.028
			c64.569,0,117.1,52.531,117.1,117.1c0,7.839-0.791,15.694-2.35,23.348c-1.508,7.397,2.979,14.871,10.213,17.015
			c19.66,5.825,37.375,18.054,49.884,34.432c12.921,16.92,19.832,37.141,19.985,58.479c0.186,25.887-9.902,50.406-28.405,69.043
			C516.235,467.092,491.319,477.512,464.86,477.512z M196.814,170.67c-25.145,0-48.988,9.875-67.139,27.806
			c-18.19,17.971-28.331,41.756-28.554,66.976c-0.053,5.955,0.447,11.922,1.485,17.738c1.202,6.741-2.153,13.438-8.348,16.665
			c-30.969,16.132-50.289,47.821-50.418,82.703c-0.092,24.707,9.624,48.116,27.355,65.914c18.015,18.082,41.858,28.04,67.139,28.04
			H464.86c26.19,0,50.854-10.314,69.45-29.044c18.314-18.446,28.299-42.714,28.115-68.331c-0.151-21.119-6.992-41.134-19.78-57.879
			c-12.381-16.212-29.915-28.314-49.372-34.08c-7.728-2.29-12.52-10.272-10.91-18.173c1.546-7.587,2.33-15.376,2.33-23.148
			c0-64.018-52.082-116.1-116.1-116.1c-39.281,0-75.605,19.654-97.165,52.576c-2.854,4.357-7.703,6.958-12.973,6.958
			c-3.151,0-6.214-0.929-8.858-2.687c-14.843-9.868-32.116-15.363-49.953-15.892c-0.941-0.028-1.887-0.042-2.823-0.042H196.814z"/>
	</g>
</g>
</svg>