<svg width="59" height="57" viewBox="0 0 59 57" fill="none" xmlns="http://www.w3.org/2000/svg">
<mask id="mask0_1320_3142" style="mask-type:luminance" maskUnits="userSpaceOnUse" x="0" y="0" width="60" height="57">
<path d="M59.0007 0.554688H0.950684V56.0547H59.0007V0.554688Z" fill="white"/>
</mask>
<g mask="url(#mask0_1320_3142)">
<path d="M30.0506 5.50513C37.8506 5.50513 38.7506 5.50527 41.7506 5.65527C44.6006 5.80527 46.1006 6.25469 47.1506 6.55469C48.5006 7.00469 49.4006 7.60527 50.4506 8.65527C51.5006 9.70527 52.1006 10.6047 52.5506 11.8047C53.0006 12.7047 53.4506 14.2053 53.6006 16.9053C53.7506 19.7553 53.7506 20.6553 53.7506 28.1553C53.7506 35.5053 53.7506 36.4053 53.6006 39.4053C53.4506 42.1053 53.0006 43.6051 52.5506 44.5051C52.1006 45.8551 51.3506 46.7553 50.4506 47.6553C49.4006 48.7053 48.5006 49.1551 47.1506 49.7551C46.1006 50.2051 44.6006 50.6553 41.7506 50.6553C38.7506 50.8053 37.7006 50.8047 30.0506 50.8047C22.2506 50.8047 21.3506 50.8053 18.3506 50.6553C15.5006 50.5053 14.0006 50.0551 12.9506 49.7551C11.6006 49.3051 10.7006 48.7053 9.65056 47.6553C8.60056 46.7553 8.00057 45.7051 7.55057 44.5051C7.10057 43.4551 6.6506 42.1053 6.5006 39.4053C6.35059 36.4053 6.35059 35.6553 6.35059 28.1553C6.35059 20.8053 6.35059 19.9053 6.5006 16.9053C6.6506 14.2053 7.10057 12.7047 7.55057 11.8047C8.00057 10.4547 8.75056 9.55527 9.65056 8.65527C10.7006 7.75527 11.6006 7.15469 12.9506 6.55469C14.0006 6.10469 15.5006 5.65527 18.3506 5.65527C21.3506 5.50527 22.2506 5.50513 30.0506 5.50513ZM30.0506 0.554688C22.1006 0.554688 21.2006 0.554834 18.0506 0.704834C14.9006 0.854834 12.8006 1.30469 11.0006 2.05469C9.0506 2.80469 7.40056 3.70483 5.90056 5.20483C4.25056 6.70483 3.35059 8.35527 2.60059 10.1553C1.85059 11.9553 1.4006 13.9053 1.2506 16.9053C1.1006 19.9053 1.10059 20.8047 1.10059 28.3047C1.10059 35.8047 1.1006 36.7048 1.2506 39.7048C1.4006 42.7048 1.85059 44.6548 2.60059 46.4548C3.35059 48.2548 4.40056 49.9053 5.90056 51.4053C7.55056 52.9053 9.20059 53.9547 11.0006 54.5547C12.8006 55.3047 14.9006 55.7553 18.0506 55.9053C21.2006 56.0553 22.1006 56.0547 30.0506 56.0547C38.0006 56.0547 38.9006 56.0553 42.0506 55.9053C45.2006 55.7553 47.3006 55.3047 49.1006 54.5547C51.0506 53.8047 52.7006 52.9053 54.2006 51.4053C55.8506 49.9053 56.7506 48.2548 57.5006 46.4548C58.2506 44.6548 58.7006 42.7048 58.8506 39.7048C59.0006 36.7048 59.0006 35.8047 59.0006 28.3047C59.0006 20.8047 59.0006 19.9053 58.8506 16.9053C58.7006 13.9053 58.2506 11.9553 57.5006 10.1553C56.7506 8.35527 55.8506 6.70483 54.2006 5.20483C52.5506 3.70483 50.9006 2.65469 49.1006 2.05469C47.3006 1.30469 45.2006 0.854834 42.0506 0.704834C38.9006 0.554834 38.0006 0.554688 30.0506 0.554688Z" fill="white"/>
<path d="M30.0507 14.0547C21.8007 14.0547 15.2007 20.5047 15.2007 28.3047C15.2007 36.1047 21.9507 42.5547 30.0507 42.5547C38.3007 42.5547 44.9007 36.1047 44.9007 28.3047C44.9007 20.3547 38.3007 14.0547 30.0507 14.0547ZM30.0507 37.4548C24.6507 37.4548 20.4507 33.2553 20.4507 28.1553C20.4507 23.0553 24.8007 18.855 30.0507 18.855C35.4507 18.855 39.6507 23.0553 39.6507 28.1553C39.8007 33.4053 35.4507 37.4548 30.0507 37.4548Z" fill="white"/>
<path d="M49.1007 13.4519C49.1007 15.2519 47.6007 16.7522 45.6507 16.7522C43.7007 16.7522 42.2007 15.2519 42.2007 13.4519C42.2007 11.6519 43.7007 10.1523 45.6507 10.1523C47.4507 10.1523 49.1007 11.6519 49.1007 13.4519Z" fill="white"/>
</g>
</svg>
