<?xml version="1.0" encoding="utf-8"?>
<!-- Generator: Adobe Illustrator 27.0.1, SVG Export Plug-In . SVG Version: 6.00 Build 0)  -->
<svg version="1.1" id="Layer_1" xmlns="http://www.w3.org/2000/svg" xmlns:xlink="http://www.w3.org/1999/xlink" x="0px" y="0px"
	 viewBox="0 0 1920 1080" style="enable-background:new 0 0 1920 1080;" xml:space="preserve">
<style type="text/css">
	.st0{fill:#02FFFF;}
	.st1{fill:#6C57D1;}
	.st2{fill:#FDFDFF;}
	.st3{fill:#FDFEFF;}
	.st4{fill:#F1F1F2;}
	.st5{fill:#FCFDFF;}
	.st6{fill:#FEFDFF;}
	.st7{fill:#CF71C0;}
	.st8{fill:#F80FF7;}
	.st9{fill:#05FFFF;}
	.st10{fill:#03FEFF;}
	.st11{fill:#FE08FF;}
	.st12{fill:#FF04FF;}
	.st13{fill:#03FFFF;}
	.st14{fill:#FE04FF;}
	.st15{fill:#0BFFFF;}
	.st16{fill:#04FFFF;}
	.st17{fill:#FD04FF;}
	.st18{fill:#0AFFFF;}
	.st19{fill:#FF0AFF;}
	.st20{fill:#FF03FF;}
	.st21{fill:#03FCFF;}
	.st22{fill:#05FEFF;}
	.st23{fill:#02FEFF;}
	.st24{fill:#FE0EFF;}
	.st25{fill:#FD02FF;}
	.st26{fill:#FD0DFF;}
	.st27{fill:#FE0AFF;}
	.st28{fill:#06FDFF;}
	.st29{fill:#0EFEFF;}
	.st30{fill:#FE01FF;}
	.st31{fill:#06FFFF;}
	.st32{fill:#FF14FF;}
	.st33{fill:#7E6CD5;}
	.st34{fill:#EFEFF1;}
	.st35{fill:#12FEFF;}
	.st36{fill:#715DD2;}
	.st37{fill:#6D58D1;}
	.st38{fill:#FE09FF;}
</style>
<g>
	<path class="st0" d="M414.9,1067.9c0,3.5,0,7,0,11.5c-16,0-31.4,0-46.7,0c-73.5,0-147-0.4-220.5,0.2c-26.7,0.2-50.5-6.8-71.2-22.5
		c-8.4-6.4-14-16.3-21.8-23.8c-0.9-18.3-0.9-37.4,0-57.1c11.7-11.1,22.5-21.7,34.2-31.4c-1.2,4.3-3.3,7.7-5.5,11.1
		c-20.4,32-12.4,71.2,19.1,93.2c20.1,14,43,18.1,67.1,18.1C251.4,1067.5,333.1,1067.8,414.9,1067.9L414.9,1067.9z"/>
	<path class="st0" d="M53.7,843.1c4.3-1.4,8.6-1.4,15.2-0.9c2.3,16.5,2.3,32.3,2.3,49.9c7.8,0,13.3,0,18.8,0c77.5,0,155,0,232.5,0
		c9.3,0,18.4,1.2,18.6,12.8c0.2,11.6-7.7,14-17.8,11.4c-5.3-4.7-10.5-11-15.9-11c-43.4-0.6-86.8-0.1-131.6-0.2
		c-41.6-0.2-81.8-0.2-122-0.2C53.7,884.7,53.7,864.6,53.7,843.1L53.7,843.1z"/>
	<path class="st1" d="M1383.9,447.5c-67.9,0-135.7,0-207.7,0c-3.8-24.4-7.1-48.8-11.5-73.1c-6.7-36.9-0.9-72.9,6.2-108.9
		c9.3-46.5,30.4-88.1,58.4-126.2c34.9-47.5,80.2-83.4,134.6-107.9c34.4-15.5,70.2-27.8,108.3-29.5c32.4-1.4,65.5-3.8,97.4,0.6
		c43.2,5.9,84.6,20.6,122.5,42.6c52.1,30.3,94.2,70.6,125.3,121.7c23.3,38.3,38.8,79.3,44.9,123.5c5.9,42.2,5,84.3-3.3,126.1
		c-1.7,8.6-4,17.5-8.3,24.9c-2.1,3.6-9.7,5.7-14.8,5.7c-68.4,0.4-136.8,0.3-207.4-0.2c8.4-20.4,18.8-40.4,29.5-60.2
		c31.6-58.2,63.4-116.3,95.7-175.1c1.4-2.7,2.4-4.6,4.6-9.3c-11.5,3.6-20.2,6.4-30.2,9.3c-3.3,0.5-5.3,0.7-7.3,1.2
		c-149.4,40.5-298.7,81.1-448.1,121.7c-11.9,3.2-23.6,6.9-39.5,11.6c40.2,10.8,75.5,20.9,111.3,29.6c8.2,2,18.6,1.6,26.2-1.6
		c49.9-21,99.3-43,148.9-63.5c0.1,2.1,0.1,3-0.8,4.4c-51.7,24.7-102.5,48.7-152,72.2C1373,408.7,1378.4,428.1,1383.9,447.5
		L1383.9,447.5z"/>
	<path class="st2" d="M94,940.2c9.5-5.7,18.9-11.5,30.8-17.2c18.2-1.2,33.9-3.4,49.6-3.6c36.4-0.6,72.7,0,109.1-0.2
		c13.2-0.1,26.4-1,39.7-1.5c10.1,1.3,18-1.1,17.8-12.7c-0.2-11.7-9.2-12.8-18.6-12.8c-77.5,0-155,0-232.5,0c-5.5,0-11,0-18.8,0
		c0-17.5,0-33.4-1.1-50.1c-1.1-4.1-1.1-7.5-1.1-12.4c5.5,0,10.7,0,18.6,0.2c34,0.5,65.2,0.6,96.5,0.9c56.9,0.5,113.9-0.3,170.7,2
		c49.7,2.1,83,40.6,74.9,84.9c-2.5,13.4-11.9,25.6-18.1,38.3c0.1-0.1,0.2,0-0.8-0.3c-1.8,0.8-2.6,1.8-4.2,3.6
		c-9.1,5.6-17.4,10.5-27.1,15.2c-25.2,1.7-49.1,4.6-73.1,5.1c-41.5,0.9-83.1,0.3-124.6,0.2c-8.5,0-16.8,0.2-19.4,11.7
		c0.8,15.2,11.4,15.5,22.1,15.5c76.1,0,152.2,0,228.3,0c5.9,0,11.9,0,17.4,0c1.3,18.8,2.4,35.3,3.5,51.7c1,14.1-10,7.3-17.6,9.2
		c-83.1,0-164.8-0.2-246.5-0.3c-24.1,0-47-4.1-67.1-18.1c-31.5-22-39.5-61.2-19.1-93.2c2.2-3.4,4.3-6.8,5.5-11.1
		c-0.9-0.9-1.1-0.8-0.1,0.1C91.1,944.1,92.6,942.1,94,940.2L94,940.2z"/>
	<path class="st2" d="M1223.8,1058.7c1.1,14.3-10.1,7-18.9,8.8c-82.8,0-162.9,0.2-243-0.4c-15.2-0.1-31-1.6-45.4-6
		c-50.2-15.3-68.5-61.8-43.1-106.3c1.3-2.2,1.1-5.2,1.6-7.7c-0.1,0-0.2,0,1,0.5c1.5-0.9,1.8-2.3,2-3.6c0,0.1-0.2,0.1,0.9,0.8
		c2.6-1.2,4-3.2,6.2-5.8c8.2-4.8,15.6-9,24.3-13c18.4-2.2,35.5-6.1,52.6-6.6c50.1-1.2,100.3-0.9,151.6-1c10.3-0.4,17.7-3.8,17-14
		c-0.8-11.4-9.8-12.6-19.1-12.4c-3.6,0.1-7.2,0-10.8,0c-73.9,0-147.7,0-221.6,0c-5.5,0-10.9,0-16.2,0c-1.4-18.3-2.7-34.5-3.9-50.7
		c0-3.3,0-6.7,0-11.8c5.5,0,10.7,0,18.6,0.3c80.9,0.5,159,0.4,237.2,1c15.3,0.1,31,1.1,45.7,4.8c62.7,15.8,74.2,76.2,46.1,110.9
		c-1.3,1.6-1.3,4.2-2,6.4c0,0,0-0.1-1-0.5c-1.4,0.9-1.7,2.2-2.1,3.5c0,0,0-0.1-0.6-0.8c-1.9,0.7-3.2,2.2-4.4,3.6
		c-7.9,5-15.7,9.9-25.9,15.1c-20.5,2.1-38.7,5.3-57,5.6c-47.5,0.8-95.1,0.3-142.6,0.3c-8.4,0-16.8,0-19.1,11.7
		c0.5,15.7,11.4,15.3,21.8,15.3c76.4,0,152.8,0,229.2,0c5.5,0,10.9,0,16,0C1220.8,1025.4,1222.3,1042,1223.8,1058.7L1223.8,1058.7z"
		/>
	<path class="st2" d="M429.9,720.7c-7.1,5.1-14.2,10.2-23.5,15.3c-2.8,1.1-3.4,2.2-4.1,3.2c0,0,0-0.2-1.1-0.7
		c-13.8,1.2-26.4,4.6-39.1,4.7c-87.1,0.5-174.3,0.3-261.4,0.3c-1.9,0-3.9-0.6-6.3-1c-1.3-16.5-2.6-32.6-3.9-48.7c0-3.3,0-6.7,0-11.8
		c5.6,0,10.8,0,18.7,0.2c80.1,0.1,157.4,0,236,0.1c11,0.5,18.7-4,16.3-13.6c-1.3-5.3-9.6-9.6-15.7-12.7c-3.7-1.8-9.1-0.4-13.7-0.4
		c-53.4-0.2-106.8,0.7-160.1-1c-48-1.5-82.6-36.4-77.7-78.6c1.8-15.3,11.9-29.7,18.2-44.6c0,0,0,0.2,0.9,0.4
		c1.8-0.8,2.6-1.8,3.4-2.9c8-5.2,16-10.4,26.4-15.5c20.1-2,37.8-5.6,55.6-5.8c78.5-0.6,157.1-0.3,235.6-0.3c5.5,0,11,0,16.3,0
		c1.6,18.2,3,34.8,4.4,51.4c-0.2,3.6-0.4,7.3-0.7,11.8c-5.5,0-10.3,0-17.3-0.8c-80.8-1.2-159.4-1.7-238-1.4
		c-5.2,0-10.3,7.2-15.7,12.2c0.6,13.8,9.8,14.4,19.7,14.4c46.8-0.1,93.6-0.2,140.4,0.1c12.8,0.1,25.8,0.4,38.4,2.4
		c67.2,10.8,87,72.1,57.9,111.2c-1.1,1.5-0.4,4.2-0.5,6.4c0,0,0.1-0.1-1.1-0.6c-1.4,0.9-1.7,2.2-2,3.6c0,0,0.1-0.1-0.7-1
		C433.2,717.8,431.6,719.3,429.9,720.7L429.9,720.7z"/>
	<path class="st3" d="M578.8,733.4c-0.3,3.7-0.5,7.4-0.9,11.9c-5.5,0-10.3,0-17.9-0.4c-20.2-0.5-37.7-1.4-55.1-0.5
		c-13.7,0.7-18.7-2.6-18.3-17.1c1.1-42.6,0.5-85.3,0.3-127.9c-0.1-21.3,1.4-42.1,15.1-60.1c1-1.3,0-4.1-0.1-6.3c0,0,0.7-0.6,1.9,0.2
		c2.9-1.1,4.7-3,6.4-4.8c6.6-4,13.2-7.9,21.7-12.2c2.5-1.2,2.9-2,3.4-2.9c0,0,0,0.2,1.1,0.5c11.2-1.8,21.2-5.5,31.3-5.5
		c66.2-0.5,132.6-1.9,198.7,0.3c48.3,1.6,83.3,34.3,81.1,83.5c-1.9,42-0.5,84.2-0.3,126.2c0,5.1,1.8,10.3,2.8,15.4
		c0,3.3,0,6.7,0,11.6c-5.5,0-10.6,0-18.3-0.3c-25.9-0.3-49.3-0.3-74.4-0.3c0-31,0-59.3,0-89c-58.5,0-115.3-0.1-172.1,0.5
		c-2.4,0-4.6,7.1-7.2,12.3C578.1,691.1,578.5,712.2,578.8,733.4 M741.7,595c4.9,0,9.9,0,14.6,0c2-20.9-1.8-26.9-17.8-27
		c-47.7-0.3-95.5-0.5-143.2,0.4c-5.6,0.1-11.2,7.2-17.4,13.7c0.3,4.1,0.6,8.3,0.8,12.4C633.4,594.5,686.2,594.5,741.7,595z"/>
	<path class="st4" d="M1519.7,309.3c-49.6,21.7-99,43.8-148.8,64.7c-7.6,3.2-18,3.6-26.2,1.6c-35.7-8.7-71.1-18.8-111.3-29.6
		c15.9-4.7,27.7-8.4,39.5-11.6c149.4-40.6,298.7-81.1,448.1-121.7c2-0.5,4-0.7,7.3-0.3c-0.3,2.8-1.8,4.9-5.9,10.3
		c12.5-4.2,21.7-7.4,31-10.5c-31.7,58.1-63.5,116.2-95.1,174.4c-10.8,19.8-21.1,39.8-31,60.3c0.7,0.6,0.6,1.8-0.4,2.6
		c-6.4,9.8-11.6,18.9-16.9,27.9c0,0-0.5,1.3-1.5,2.4c-5,7.4-9,13.7-12.7,19.5c-13-6.4-25.9-12.8-39-20c-1-1.3-1.8-1.9-2.9-3.4
		c-14.6-9.3-28.9-17.6-43.3-26.6c0-0.6-0.4-1.9-0.5-2.9c-21.6-15.4-43-29.7-65.5-44.9c56-35.7,110.4-70.3,165.8-105.2
		c12.2-7.5,23.3-14.8,35.4-22.5c2.9-2.1,4.9-3.8,6.9-5.5c-0.6-0.7-1.3-1.3-1.9-1.9c-2.7,1.9-5.3,3.7-9,5.8
		c-12.6,7.2-24.2,14.3-36.8,21.5c-56.4,32.7-111.9,65.1-167.2,97.8c-4.6,2.7-11.1,6.3-12.1,10.6c-3.5,14.9-5,30.3-7.4,46.1
		c-0.1,0.6-0.1,1.9-1.1,2.5c-2.3,9.4-3.5,18.2-5,27.6c-0.2,0.7,0,2-0.8,2.6c-2.1,3.4-3.4,6.2-5.6,8.9c-1.5-0.2-2.2-0.2-3.2-1.1
		c-2.3-3.4-4.3-5.9-6.2-8.4c0,0,0-1.3,0-3.1c-4.1-10.2-8.2-18.6-12.3-27c0,0,0-1.2-0.1-1.8c-5.5-20-11-39.4-17.1-61
		c49.5-23.4,100.3-47.5,153.1-72.2c25.1-11.5,48.2-22.4,71.3-33.3c-0.7-1.4-1.4-2.9-2.1-4.3C1566,287.9,1542.8,298.6,1519.7,309.3
		 M1603.6,271.9c-1.6,0.8-3.2,1.5-6.6,3c-0.8,0.9-1.7,1.9-2.5,2.8c2.1-0.5,4.2-1,8.1-1.7c1.5-0.9,2.9-1.8,6.1-3.1
		c0.7-0.9,1.3-1.7,2-2.6C1608.9,270.8,1607.1,271.2,1603.6,271.9 M1663.9,248.4c2.6-1.3,5.2-2.7,7.8-4c-0.7-0.9-1.5-1.8-2.2-2.8
		c-2.6,2.3-5.1,4.6-9.3,6.3c-2.4,0.6-4.8,1.2-7.2,1.9c0.4,1.1,0.8,2.2,1.2,3.4C1656.8,251.6,1659.3,250.1,1663.9,248.4
		 M1690.6,233.6c1.1,2.9,2.3,5.8,3.4,8.7c1,0,2.1,0,3.1,0c0.2-4.1,0.4-8.3,0.6-12.4C1695.6,230.6,1693.3,231.3,1690.6,233.6
		 M1703.7,226.4c2.7,1.2,5.5,2.3,8.2,3.5c0.3-1.3,0.6-2.5,0.9-3.8C1710.3,225.7,1707.7,225.4,1703.7,226.4 M1667.5,260.5
		c-0.3-1.2-0.6-2.4-0.9-3.7c-0.4,0.3-1.1,0.6-1.1,0.8C1665.7,258.8,1666.1,260.1,1667.5,260.5 M1628.2,262.1
		c0.4,0.7,0.9,1.5,1.3,2.2c0.4-0.8,1.3-1.7,1.1-2.2C1630.4,261.5,1629.2,261.2,1628.2,262.1 M1674.8,251.6c0.3,1.2,0.6,2.4,0.9,3.7
		c0.4-0.3,1.1-0.6,1.1-0.8C1676.5,253.3,1676.2,252,1674.8,251.6 M1636.6,260.5c-0.3-1.2-0.6-2.4-0.9-3.7c-0.4,0.3-1.1,0.6-1.1,0.8
		C1634.9,258.8,1635.2,260.1,1636.6,260.5 M1657.9,265.2c-0.7-0.1-1.4-0.1-2-0.2C1656.2,265.4,1656.5,265.7,1657.9,265.2
		 M1709.4,234.9C1709.4,234.9,1709.8,234.7,1709.4,234.9z"/>
	<path class="st2" d="M802.5,1045.9c-8.1,4.9-16.1,9.8-26.4,15c-16.4,2.4-30.5,6-44.7,6.2c-56.4,0.7-112.8,0.7-169.3,0
		c-13.7-0.2-27.9-1.9-40.8-6.1c-29.2-9.4-52.8-28.1-53.1-59.4c-0.4-47.1-12.2-95.7,12.5-140.8c0.1-0.2-0.6-0.7-0.9-1.1
		c0,0-0.1,0.1,1.1,0.6c1.4-0.9,1.7-2.2,2-3.6c0,0-0.1,0.1,0.7,0.9c2.2-0.8,3.5-2.5,4.9-4.1c7.4-4.9,14.7-9.7,24.3-14.7
		c2.8-1.2,3.4-2.2,4-3.3c0,0,0,0.2,1.1,0.7c8.2-0.9,15.2-3.5,22.2-3.5c70.8-0.3,141.7-1.9,212.4,0.4c44.9,1.5,73.2,34.7,73.6,78.7
		c0.2,16.5-0.5,33.1,0.1,49.6c1.1,29.2,0.6,57.8-19.6,82c0,0,0-0.2-0.9-0.4C804.1,1043.8,803.3,1044.8,802.5,1045.9 M557,905.1
		c-0.1,28.1-0.1,56.2-0.4,84.2c-0.1,12.2,6.2,17.5,17.9,17.5c47.8-0.1,95.6-0.4,145.7-0.4c11.7-0.1,16.3-6.2,16.2-17.2
		c-0.2-26.6-0.3-53.1,0-79.7c0.1-12-5.3-17.5-17.5-17.5c-48.3,0.1-96.6-0.3-144.9,0.5C568.4,892.6,563,898.9,557,905.1L557,905.1z"
		/>
	<path class="st5" d="M880.5,516.4c-0.9-14,10-7.5,19.1-9c101.9,0,201,0,300.2,0c0.9,18.7,1.8,35.1,2.4,52.7
		c1.2,17.9-12.1,7.9-19.2,9.7c-30-1.3-59.1-1.5-88.1-1.9c-9.3-0.1-9.9,4.8-8.3,13c-0.4,34.6-0.4,67.7-0.4,102.4
		c39.1,0,75.8,0,112.6,0c1.2,17.7,2.3,34,3.4,50.2c0,3.3,0,6.7,0,11.8c-5.6,0-10.8,0-18.6-0.3c-102.1-0.3-201.5-0.3-302.9-0.3
		c0-18.8,0-34.8,0.2-52c-1.2-18.1,12.5-7.6,20-10.6c26.6,0.2,51.9,0.1,78.4,0.2c6.2,0.2,11,0.2,15.8,0.2c0-39.1,0-75.9,0-114.8
		c-38,0-75.1,0-114.5,0C880.5,549.3,880.5,532.8,880.5,516.4L880.5,516.4z"/>
	<path class="st6" d="M1523,841.1c0-3.3,0-6.7,0-11.6c5.5,0,10.6,0,18.6,0.2c26.2,0.2,49.7,0.2,74.2,0.2c0,8.1,0,13.6,0,19
		c0,64.7-0.1,129.4,0.1,194.2c0,5.2,1.9,10.4,2.9,15.6c1.2,14.4-10.1,6.8-18.8,8.7c-26.2,0-49.6,0-74.6,0c0-30.3,0-58.7,0-87.7
		c-55.6,0-109.5,0.1-163.5-0.1c-12.3-0.1-24.7-0.6-36.9-2.5c-40-6.1-65.4-32.1-68.7-71.3c-1.8-21.4-1.5-43-2.1-64.5
		c0.2-3.7,0.5-7.3,0.8-11.9c5.5,0,10.3,0,17.7,0.4c25.7,0.4,49,0.4,73.6,0.4c0,25.8,0.3,48.2-0.1,70.6c-0.2,11.9,5.4,18,17.2,18
		c48.1-0.1,96.2-0.5,145.6-0.5c6.2,0.3,11,0.3,17.1,0.3c0-17,0.4-32.4-0.1-47.6C1525.6,861.2,1524,851.2,1523,841.1L1523,841.1z"/>
	<path class="st5" d="M1597.2,733.6c0,3.3,0,6.7,0,11.7c-5.5,0-10.7,0-18.6-0.3c-13-0.5-23.2-0.7-33.5-0.8
		c-77.6-0.5-155.2,0.1-232.8-2c-47.4-1.3-76.7-34-76.9-80.4c-0.1-43.1,0.3-86.3-0.4-129.4c-0.1-6.5-5.2-12.9-7.3-20.2
		c8.4-2.3,16.1-3.8,25.3-5c24.8,0.2,48.1,0.2,72.2,0.2c0,51.5,0,100.5,0,149.5c0,25,0.9,25.9,27.3,25.9c74.9,0,149.8,0,224.8,0
		c5.4,0,10.9,0,16,0C1594.6,701.2,1595.9,717.4,1597.2,733.6L1597.2,733.6z"/>
	<path class="st1" d="M1251.6,507c-7.7,1.4-15.5,2.8-24.8,5.3c-2.2,0.9-2.9,0.8-4-0.2c-3.2-13.5-11.5-18.1-24-17.1
		c-2-4.3-4.1-8.5-7-14.6c68.6,0,135.1,0,203.1-0.1c3.4,2.4,5.3,4.9,7.5,9.1c0.8,2.5,1.3,3.3,1.8,4.1c0.8-1.2,1.6-2.4,2.4-3.6
		c1.3-2.8,2.6-5.7,6.1-8.9c49.6-0.6,96.9-0.7,144.2-0.8c12.9,6.4,25.9,12.8,38.9,19.2c3.7-5.8,7.7-12.1,12.7-18.8
		c75.8-0.4,150.6-0.4,228.5-0.4c-5.3,10.7-9.2,18.8-13.5,27.4c-158.7,0-317.4,0-477.8-1.2c-5-4.3-8.3-9.9-11.9-10
		c-23.3-0.8-46.7-0.1-70.1-0.6C1254.9,495.5,1251.8,499.3,1251.6,507L1251.6,507z"/>
	<path class="st7" d="M1344.5,510.4c157.8,0,315.6,0,473.4,0c-0.6,15.7-9.6,24.1-24.9,24.1c-148.6,0-297.2,0-447.4-1.3
		C1344.2,524.8,1344.3,517.6,1344.5,510.4L1344.5,510.4z"/>
	<path class="st7" d="M1344.5,540.5c150.6,0,301.2,0,451.8,0c-0.6,15.7-9.5,24.1-24.9,24.1c-141.4,0-282.7,0-425.7-1.3
		C1344.2,554.9,1344.3,547.7,1344.5,540.5L1344.5,540.5z"/>
	<path class="st8" d="M1344.3,539.6c0.1,8.1-0.1,15.3,0,23.8c0.1,3.6-0.1,5.8-0.2,10.5c0.1,8.6,0.3,14.8,0.4,20.9
		c-0.1,2.3-0.3,4.5-0.4,9.2c0.1,7.6,0.2,12.8,0.3,18c-0.1,4.1-0.2,8.3-0.3,14.8c0.2,4.6,0.3,6.9,0.4,9.2c-2,21.4,5.1,24.7,23.3,24.3
		c77.4-1.6,154.7-2.1,232.1-2.9c5.6-0.1,11.2,0,15.9,0c0,22.1,0,43.3,0,66c-6.1,0-11,0-17.3,0.2c-2.7-16.1-4-32.3-5.4-50.6
		c-5.1,0-10.5,0-16,0c-74.9,0-149.8,0-224.8,0c-26.3,0-27.2-0.9-27.3-25.9c0-49,0-98,0-149.5c-24,0-47.4,0-72.2-0.2
		c-1.2-7.8,1.9-11.7,10.7-11.6c23.4,0.5,46.8-0.2,70.1,0.6c3.5,0.1,6.8,5.7,10.4,10c0.1,1.7,0,2.2,0,3.5c0,7.9-0.1,15.1-0.1,23.6
		C1344.3,535.9,1344.2,537.3,1344.3,539.6L1344.3,539.6z"/>
	<path class="st9" d="M1223.2,513c0.6,0.1,1.3,0.2,2.9,0.2c3.7,6.3,8.8,12.7,8.9,19.2c0.7,43.1,0.3,86.2,0.4,129.4
		c0.1,46.4,29.5,79.1,76.9,80.4c77.6,2.1,155.2,1.5,232.8,2c10.3,0.1,20.5,0.3,32.2,1c1.2,3.9,1.1,7.4,0.8,12.2c-4.7,0-9.2,0-13.7,0
		c-84.1,0-168.1,0.4-252.2-0.4c-15.6-0.2-31.4-4.4-46.7-8.5c-19.5-5.2-31.7-20-43.9-37.1c-3.3-15-5.4-28.3-7.5-43
		c0-37.4,0-73.4,1-110.1C1218.6,542.6,1220.9,527.8,1223.2,513L1223.2,513z"/>
	<path class="st7" d="M1345.9,594.8c-1.5-6.2-1.7-12.3-1.7-19.8c142.8-1.3,285.4-1.3,429.1-1.3c-9.9,19.7-25.2,21.5-43.4,21.4
		C1602.4,594.5,1474.8,594.8,1345.9,594.8z"/>
	<path class="st10" d="M1252.8,841.5c2,21.4,1.7,43,3.5,64.4c3.4,39.2,28.7,65.2,68.7,71.3c12.1,1.8,24.6,2.4,36.9,2.5
		c54,0.3,107.9,0.1,163.5,0.1c0,29.1,0,57.4,0,87.7c25,0,48.5,0,73.3,0.2c1.4,3.7,1.4,7.2,1.4,11.2c-30.8,0-60.9,0-92.3,0
		c0-28.7,0-57,0-86.8c-16.5,0-31.7,0-47,0c-46.2,0-92.5,1.2-138.6-0.4c-35.3-1.2-65.5-13.8-80.2-48.8c-2.4-5.8-4.1-11.8-6.1-20.2
		c-0.2-20.7-0.3-38.9-0.5-57.1c0-7.6,0-15.3,0-24.1C1241.8,841.6,1246.6,841.6,1252.8,841.5L1252.8,841.5z"/>
	<path class="st11" d="M807.8,1043.4c19.1-24.2,19.6-52.8,18.5-82c-0.6-16.5,0-33-0.1-49.6c-0.4-44-28.6-77.2-73.6-78.7
		c-70.7-2.4-141.6-0.7-212.4-0.4c-7,0-14,2.6-22.3,3.5c16.4-15.3,38.7-17.8,60.1-18.3c57.9-1.3,115.8-1.4,173.6-0.1
		c35.5,0.8,67.6,11,88,45.7c3.3,15,5.5,28.3,7.5,42.9c0.1,23.5,0.3,45.5,0.2,68.8c-2.3,13.3-4.4,25.3-6.5,37.4
		C830.2,1022.9,819.6,1033.1,807.8,1043.4L807.8,1043.4z"/>
	<path class="st12" d="M851.3,733.5c-2.2-4.9-4-10.1-4-15.2c-0.2-42.1-1.6-84.2,0.3-126.2c2.2-49.2-32.9-81.9-81.1-83.5
		c-66.2-2.2-132.5-0.8-198.7-0.3c-10.1,0.1-20.1,3.8-31.4,5.5c14.2-12.8,32.2-18.4,52.1-18.4c64.7,0,129.4-0.9,194.1,0.3
		c33.1,0.6,61.5,12.7,78.5,45.7c3.3,14.1,5.3,26.4,7.4,40.1c0,38.3,0,75.1-1.2,112.4c-2.6,13.4-3.9,26.4-5.3,39.4
		C858.9,733.4,855.7,733.3,851.3,733.5z"/>
	<path class="st9" d="M478.7,859.7c1.4,0.4,2.1,1,2.1,1.1c-24.7,45.1-12.9,93.8-12.5,140.8c0.3,31.2,23.8,49.9,53.1,59.4
		c12.9,4.2,27.1,5.9,40.8,6.1c56.4,0.7,112.8,0.7,169.3,0c14.2-0.2,28.3-3.8,43.7-5.7c-12.3,13.4-30,17.6-47.8,17.8
		c-66.2,0.8-132.5,1.4-198.7-0.2c-31.8-0.8-59.1-13.7-75.4-45.5c-3.3-14.1-5.4-26.4-7.4-40.1c-0.2-23.4-0.3-45.4-0.3-68.7
		c2.5-13.4,4.7-25.7,7-37.9C460.8,877.8,469.2,868.8,478.7,859.7z"/>
	<path class="st7" d="M1345.8,621.9c-1.5-5.2-1.6-10.4-1.5-16.8c131.1-1.3,262-1.3,394.5-1.3c-9.2,13.7-20,18.4-35.3,18.4
		C1584.8,621.6,1466,621.9,1345.8,621.9L1345.8,621.9z"/>
	<path class="st12" d="M452.2,885.7c-2,13.4-4.2,25.6-7.7,39.5c-9.7,13.5-16.6,27.1-32.9,30.9c6.3-12.8,15.7-25,18.2-38.4
		c8.1-44.3-25.2-82.8-74.9-84.9c-56.8-2.4-113.8-1.5-170.7-2c-31.3-0.3-62.5-0.5-95.2-1.1c-1.4-3.9-1.4-7.4-1.4-12.1
		c17,0,33.4,0,49.7,0c71.9,0,143.7-0.5,215.6,0.3c25.1,0.3,49,5.5,70.7,20.3C440.8,850,445.1,867.5,452.2,885.7L452.2,885.7z"/>
	<path class="st13" d="M841.9,1013.3c1-12.6,3.1-24.7,6.3-38.4c9.7-10.4,18.3-19.1,26.8-27.8c-0.5,2.6-0.4,5.6-1.7,7.8
		c-25.4,44.4-7.1,91,43.1,106.3c14.4,4.4,30.2,5.9,45.4,6c80.1,0.6,160.2,0.3,241.7,0.6c1.4,3.7,1.4,7.2,1.4,11.8
		c-10.8,0-21,0-31.2,0c-83.1,0-166.2,0.8-249.3-0.4c-36.3-0.5-68.7-19.4-79.9-55C843.6,1020.8,843.5,1017.3,841.9,1013.3
		L841.9,1013.3z"/>
	<path class="st14" d="M1234.4,865.3c1.1,18.7,1.3,36.9,1.2,56.4C1226,933,1216.5,943,1206,953c-0.5-2.1-0.5-4.8,0.8-6.4
		c28.1-34.8,16.6-95.2-46.1-110.9c-14.7-3.7-30.5-4.7-45.7-4.8c-78.2-0.6-156.3-0.5-235.9-1.2c-1.2-4-1.1-7.5-0.9-11.6
		c4.2-0.2,8.2-0.6,12.2-0.6c83.8,0,167.5-0.5,251.3,0.3c23.4,0.2,47.5,2.8,66.6,18.1C1218.1,843.9,1225.2,855.1,1234.4,865.3
		L1234.4,865.3z"/>
	<path class="st15" d="M111.4,531.5c-5.2,14.8-15.3,29.2-17.1,44.6c-4.9,42.3,29.7,77.1,77.7,78.6c53.3,1.6,106.8,0.8,160.1,1
		c4.6,0,10-1.4,13.7,0.4c6.1,3.1,14.4,7.4,15.7,12.7c2.4,9.5-5.3,14-16.4,12.3c-2.3-12.7-11-11-18.5-11c-54-0.2-107.9-0.3-161.9-0.5
		c-10.6-1.9-21.3-3.1-31.7-5.7C101,656,73.6,631.8,73,594.7C72.5,568.4,82.4,543.9,111.4,531.5L111.4,531.5z"/>
	<path class="st1" d="M1611.4,477.4c3.9-9,9.1-18,15.5-27.2c74.5-0.2,147.9-0.2,221.4-0.2c-5,26-6.7,27.4-32.2,27.4
		C1748.3,477.3,1680.5,477.4,1611.4,477.4L1611.4,477.4z"/>
	<path class="st16" d="M89.2,693.9c2.6,16,3.9,32,5.2,48.5c2.4,0.4,4.3,1,6.3,1c87.1,0,174.3,0.2,261.4-0.3
		c12.6-0.1,25.3-3.4,39.1-4.7c-15.4,15.1-36.9,18-57,18.2c-89.7,1.2-179.4,0.4-269.2,0.3c-0.4,0-0.8-0.5-2-1.2c0-19.8,0-40,0-61.8
		C78,694.1,82.9,694.1,89.2,693.9L89.2,693.9z"/>
	<path class="st17" d="M440.5,715.2c-1-2.2-1.7-4.9-0.6-6.4c29.1-39,9.3-100.3-57.9-111.2c-12.6-2-25.6-2.4-38.4-2.4
		c-46.8-0.3-93.6-0.1-140.4-0.1c-9.8,0-19-0.6-18.3-14.4c9.8-0.9,18-0.7,26.3-0.5c4.7,0.8,9.5,2.4,14.2,2.4
		c53.9,0.2,108-1.4,161.8,0.7c32.3,1.3,61.5,12.8,79,45.4c1,20.9,0.9,40.2,0.7,59.4C458.4,697.1,450,706.1,440.5,715.2L440.5,715.2z
		"/>
	<path class="st1" d="M1382.6,450.1c5.5,8.3,9.6,16.7,13.5,26.2c-61.2,1.1-122.3,1.1-183.4,1c-25.2,0-25.2,0-31.7-27.1
		C1248,450.2,1314.6,450.2,1382.6,450.1L1382.6,450.1z"/>
	<path class="st18" d="M578.3,667.1c2.3-3.8,4.6-10.9,6.9-10.9c56.8-0.6,113.6-0.5,172.1-0.5c0,29.8,0,58,0,89
		c25.1,0,48.5,0,73.1,0.5c1.2,4,1.2,7.4,1.2,11.5c-30.8,0-60.9,0-92.2,0c0-28.5,0-56.7,0-86.7c-47.2,0-93.2,0-141.2-1
		C590.2,667.7,584.2,667.4,578.3,667.1L578.3,667.1z"/>
	<path class="st12" d="M1620.2,1058.6c-2.4-5-4.3-10.2-4.3-15.4c-0.2-64.7-0.1-129.5-0.1-194.2c0-5.5,0-10.9,0-19
		c-24.5,0-48,0-72.9-0.4c-1.4-3.9-1.4-7.4-1.4-11.5c30.8,0,61,0,91.9,0c0,79.9,0,159.4,0,240.3
		C1629.3,1058.4,1625.4,1058.4,1620.2,1058.6L1620.2,1058.6z"/>
	<path class="st19" d="M1507.6,918.2c-48.1,0.3-96.2,0.7-144.3,0.8c-11.9,0-17.4-6.1-17.2-18c0.4-22.4,0.1-44.8,0.1-70.6
		c-24.6,0-47.8,0-72.3-0.6c-1-4-0.8-7.5-0.6-11.7c30.2,0,60.3,0,92.2,0c0,22.8,0.5,45.7-0.2,68.4c-0.4,13.6,5,18.6,18.9,18.4
		c40-0.5,80-0.2,121.6,0.9C1507.6,910.8,1507.6,914.5,1507.6,918.2L1507.6,918.2z"/>
	<path class="st7" d="M1345.7,645.9c-1.3-2.3-1.5-4.6-1.5-8c115.5-1.1,230.9-1.1,348.1-1.1c-12.5,11.4-25,15.5-40.5,15.4
		c-86.3-0.6-172.6,0-258.8-0.5C1377.6,651.6,1362.3,648,1345.7,645.9L1345.7,645.9z"/>
	<path class="st20" d="M456.5,558.8c-2.8-16.5-4.2-33.1-5.8-51.3c-5.3,0-10.8,0-16.3,0c-78.5,0-157.1-0.4-235.6,0.3
		c-17.8,0.1-35.5,3.8-54.5,5.6c14.6-6.1,30.3-16.9,46.3-17.1c92.3-1.6,184.6-0.8,276.9-0.8c1.5,0,2.9,0.4,5.1,0.7
		c0,20.4,0,40.7,0,62.5C467.7,558.7,462.8,558.7,456.5,558.8L456.5,558.8z"/>
	<path class="st21" d="M862.3,734.8c1.2-14.4,2.6-27.4,6.3-40.5c5.6-0.2,8.8-0.2,12-0.3c0,15.9,0,31.9,0,50.7
		c101.5,0,200.9,0,301.6,0.5c1.2,4,1,7.5,0.8,11.6c-106.4,0-212.7,0-320.7,0C862.4,749.8,862.4,743,862.3,734.8L862.3,734.8z"/>
	<path class="st22" d="M847.2,905.1c-2.1-13.3-4.3-26.6-6.6-41.2c0.1-7.9,0.4-14.6,0.8-22.4c5.5,0,10.3,0,16.4-0.1
		c2.6,16.1,3.8,32.3,5.3,50.6c5.2,0,10.7,0,16.2,0c73.9,0,147.7,0,221.6,0c3.6,0,7.2,0.1,10.8,0c9.3-0.1,18.4,1.1,19.1,12.4
		c0.7,10.2-6.7,13.6-16.9,12.9c-6-5.1-10.8-12-15.8-12.1c-43.5-0.7-87.1-0.2-132-0.2C925.4,905,886.3,905.1,847.2,905.1L847.2,905.1
		z"/>
	<path class="st23" d="M467,689.5c-0.1-20.6,0.1-39.8,0-60.3c0.9-18.5,1.2-35.8,3.5-52.9c2.5-18.3,12.8-32.4,30.4-42.5
		c1,1.4,2,4.2,1,5.6c-13.7,18-15.2,38.8-15.1,60.1c0.2,42.6,0.7,85.3-0.3,127.9c-0.4,14.5,4.7,17.9,18.3,17.1
		c17.4-1,34.9,0,53.8,0.6c1.2,4,1,7.5,0.8,11.6c-30.3,0-60.4,0-92.3,0C467.3,734.6,467.3,712.7,467,689.5z"/>
	<path class="st24" d="M1225.2,1058.6c-2.9-16.5-4.3-33.2-6-51.7c-5,0-10.5,0-16,0c-76.4,0-152.8,0-229.2,0
		c-10.5,0-21.4,0.3-20.6-15.3c10.8-0.4,20.1,0.4,29.4,1.1c5.2,0.8,10.5,2.4,15.7,2.4c75.5,0.2,151.1,0.1,226.6,0.1
		c5.1,0,10.1,0,16.1,0c0,21.1,0,41.4,0,63.3C1236.3,1058.4,1231.4,1058.4,1225.2,1058.6L1225.2,1058.6z"/>
	<path class="st25" d="M1222.8,512c-1.9,15.8-4.2,30.6-8.7,46c-5.4,0.7-8.6,0.7-11.8,0.8c-0.8-16.4-1.6-32.7-2.6-51.4
		c-99.2,0-198.3,0-298.8-0.2c-1.4-3.7-1.4-7.2-1.4-11.8c99.3,0,197.9,0,297.9-0.2C1211.3,493.9,1219.6,498.5,1222.8,512L1222.8,512z
		"/>
	<path class="st26" d="M445.7,994.8c2.1,12.3,4.2,24.7,6.5,38.3c0.2,8.9,0.2,16.5,0.2,25.4c-6.4,0-11.2,0-17.3,0.1
		c-2.4-16.4-3.5-32.8-4.8-51.6c-5.5,0-11.4,0-17.4,0c-76.1,0-152.2,0-228.3,0c-10.7,0-21.2-0.2-20.8-15.4
		c10.6-0.3,19.7,0.5,29.5,2.3C277.9,994.8,361.8,994.8,445.7,994.8L445.7,994.8z"/>
	<path class="st27" d="M1214.2,669.7c2.1,13.3,4.2,26.6,6.6,41.2c-0.1,7.9-0.5,14.6-0.8,22.4c-5.4,0-10.2,0-16.4,0.1
		c-2.5-16.1-3.6-32.4-4.8-50.1c-36.8,0-73.5,0-112.6,0c0-34.6,0-67.8,1.5-102.4c7.2-1.2,12.9-0.9,18.6,0.7c0,30.2,0,59,0,88.2
		C1143.5,669.7,1178.8,669.7,1214.2,669.7L1214.2,669.7z"/>
	<path class="st28" d="M868.6,580.2c-2.1-12.3-4.1-24.6-6.4-38.3c-0.2-9-0.2-16.6-0.2-25.5c6.3,0,11.1,0,17.3,0
		c1.3,16.4,1.3,32.8,1.3,51.2c39.3,0,76.5,0,114.5,0c0,38.8,0,75.7,0,114.8c-4.8,0-9.7,0-15.8-1.4c-1.9-4.6-2.4-7.9-2.8-12.5
		c0.2-30.1,0.2-58.9,0.2-88.3C939.7,580.2,904.2,580.2,868.6,580.2L868.6,580.2z"/>
	<path class="st29" d="M212.5,580c-9.6,0-17.9-0.2-27.4-0.5c3.8-3.9,8.9-11,14.1-11c78.6-0.4,157.2,0.2,236.7,1.4
		c2.2,11.3-5.2,9.8-11.7,9.8c-67,0-134,0-201,0C220.1,579.7,217,579.7,212.5,580L212.5,580z"/>
	<path class="st30" d="M163.4,669.8c55.4,0,109.3,0.1,163.3,0.3c7.6,0,16.2-1.7,17.3,10.8c-77.3,1.3-154.7,1.4-233.4,1.2
		c-1.4-3.9-1.4-7.3-1.4-12.1C127.2,670,144.6,670,163.4,669.8L163.4,669.8z"/>
	<path class="st10" d="M984.2,992.4c-10.7-0.5-20-1.3-30.6-2c0.8-10.7,9.2-10.6,17.6-10.6c47.6,0,95.1,0.5,142.6-0.3
		c18.2-0.3,36.4-3.5,55.9-5.1c-16.6,6.1-34.2,16-52.4,17C1073.6,993.9,1029.6,992.2,984.2,992.4z"/>
	<path class="st31" d="M1508.9,918.5c-1.3-4-1.4-7.7-1.7-12.6c-0.2-21.8-0.2-42.5-0.2-64.4c5.4,0,9.3,0,14.6-0.2
		c2.4,9.8,4,19.8,4.3,29.8c0.5,15.3,0.1,30.6,0.1,47.6C1520,918.9,1515.1,918.9,1508.9,918.5L1508.9,918.5z"/>
	<path class="st30" d="M578.1,668.5c6.2-1.1,12.1-0.8,18.7,0.5c0.7,21.7,0.7,42.3,0.7,64.3c-6.2,0-11.1,0-17.3,0.1
		C578.5,712.2,578.1,691.1,578.1,668.5L578.1,668.5z"/>
	<path class="st14" d="M1197.7,958.9c0.3-1.5,1.6-3,3.6-3.7C1200.8,956.9,1199.7,958,1197.7,958.9z"/>
	<path class="st23" d="M509.1,528.5c-0.6,1.8-2.3,3.7-5.1,4.6C504.5,530.9,506.2,529.7,509.1,528.5z"/>
	<path class="st17" d="M431,720.9c0.6-1.7,2.2-3.1,4.7-3.7C435,719.1,433.5,720.1,431,720.9z"/>
	<path class="st9" d="M487.6,853.6c-0.4,1.6-1.8,3.2-4,4.1C484,855.8,485.3,854.8,487.6,853.6z"/>
	<path class="st11" d="M515.9,835.7c0.3,0.9-0.3,2-2,3.1C513.6,837.8,514.3,836.8,515.9,835.7z"/>
	<path class="st17" d="M437.2,718.1c-0.6-1.3-0.3-2.6,1.2-3.5C439,716,438.6,717,437.2,718.1z"/>
	<path class="st14" d="M1202.7,956c-0.6-1.2-0.2-2.5,1.2-3.4C1204.6,953.9,1204.1,954.9,1202.7,956z"/>
	<path class="st9" d="M482,856.8c0.6,1.3,0.3,2.6-1.2,3.5C480.2,858.9,480.7,857.9,482,856.8z"/>
	<path class="st15" d="M115.8,528.9c0.2,1.2-0.6,2.2-2.5,3C113.1,530.7,113.9,529.7,115.8,528.9z"/>
	<path class="st12" d="M534.6,513.4c0.3,0.8-0.2,1.6-1.6,2.5C532.7,515.2,533.2,514.3,534.6,513.4z"/>
	<path class="st11" d="M803.6,1046c-0.2-1.2,0.6-2.2,2.4-3C806.2,1044.2,805.4,1045.2,803.6,1046z"/>
	<path class="st16" d="M403.3,739.2c-0.3-0.9,0.3-2,2-3.1C405.7,737,405,738,403.3,739.2z"/>
	<path class="st32" d="M323.2,916.3c-13.2,1.8-26.4,2.8-39.7,2.8c-36.4,0.2-72.7-0.3-109.1,0.2c-15.8,0.2-31.5,2.4-48.5,3.4
		c13.3-13.4,31.4-14.9,50.6-16.4c44.1-1.2,87.5-1.8,130.8-1.1C312.7,905.3,317.9,911.6,323.2,916.3z"/>
	<path class="st0" d="M93,940.6c-0.5,1.6-1.9,3.5-4.4,4.5C89.1,943.1,90.6,942,93,940.6z"/>
	<path class="st33" d="M1519.7,310.6c23.2-12,46.3-22.6,69.5-33.3c0.7,1.4,1.4,2.9,2.1,4.3c-23.1,10.9-46.2,21.8-70.4,32.8
		C1519.8,313.5,1519.7,312.7,1519.7,310.6z"/>
	<path class="st34" d="M1753.9,211.5c-9.7,3.9-19,7-31.5,11.2c4.1-5.4,5.6-7.4,7.2-10.4c8.7-3.7,17.5-6.5,28.9-10.1
		C1756.3,206.9,1755.4,208.8,1753.9,211.5z"/>
	<path class="st13" d="M379.6,974.4c-13.7,14.5-33.1,17.1-52.3,17.5c-43.9,0.8-87.9,0.3-133.3,0.5c-10.6-0.5-19.7-1.3-30-2.1
		c1.1-10.5,9.4-10.6,17.9-10.6c41.5,0,83.1,0.7,124.6-0.2C330.5,979,354.4,976.1,379.6,974.4L379.6,974.4z"/>
	<path class="st12" d="M410.8,955.7c0.2,1.2-0.6,2.2-2.4,3.1C408.3,957.5,409.1,956.5,410.8,955.7z"/>
	<path class="st32" d="M909.5,926.1c14.9-15.5,35.3-18.5,57.2-19.7c44.2-1.2,87.7-1.8,131.2-1.1c5,0.1,9.8,7,14.7,11.9
		c-50.2,1.4-100.4,1.2-150.5,2.3C945,919.9,927.9,923.9,909.5,926.1L909.5,926.1z"/>
	<path class="st13" d="M878.9,944.9c0.5-1.8,2-2.9,4.5-4.6C883,941.7,881.5,943.7,878.9,944.9z"/>
	<path class="st13" d="M876,947.6c-0.7-1.4-0.2-2.5,1.2-3.5C877.7,945.4,877.5,946.7,876,947.6z"/>
	<path class="st35" d="M578.6,579.5c5.6-3.8,11.1-10.9,16.7-11c47.7-0.9,95.4-0.7,143.2-0.4c16,0.1,19.8,6,17.8,27
		c-4.7,0-9.7,0-16-1.3c-5.5-4.7-9.6-8-14.4-12.5c-43.5-1.1-86.2-1-130.3-1.2C589.1,579.6,583.9,579.5,578.6,579.5L578.6,579.5z"/>
	<path class="st30" d="M578.2,580.8c5.6-1.3,10.9-1.2,18.1,0.2c44.8,1.3,87.5,1.3,130.2,1.2c4.1,3.4,8.2,6.7,12.3,11.2
		c-52.8,1.1-105.6,1.1-160.2,1.1C578.5,590.5,578.2,586.3,578.2,580.8L578.2,580.8z"/>
	<path class="st36" d="M1609.3,296.5c-54.4,34.6-108.7,69.3-164.8,104.9c22.6,15.2,44,29.5,64.1,44.9c-31,1-60.7,1.1-90.4,1.2
		c2.3-15.2,3.8-30.6,7.3-45.5c1-4.2,7.4-7.8,12.1-10.6c55.3-32.6,110.8-65,167.9-97.4C1608,294.9,1608.6,295.7,1609.3,296.5
		L1609.3,296.5z"/>
	<path class="st37" d="M1510.6,449.9c14.3,8.3,28.7,16.6,41.8,26.1c-47.5,1.3-93.9,1.3-140.2,1.4c1.3-8.8,2.5-17.5,6.3-26.8
		C1450.8,450.1,1480.7,450,1510.6,449.9z"/>
	<path class="st33" d="M1610.3,296.2c-1.7-0.5-2.4-1.3-3.8-2.5c10.8-7.4,22.4-14.4,35.6-21.1c1.9,0.8,2.3,1.1,2.7,1.5
		C1633.6,281.5,1622.5,288.7,1610.3,296.2L1610.3,296.2z"/>
	<path class="st34" d="M1690.9,232.8c2.5-1.5,4.7-2.2,6.9-2.9c-0.2,4.1-0.4,8.3-0.6,12.4c-1,0-2.1,0-3.1,0
		C1692.9,239.4,1691.8,236.5,1690.9,232.8z"/>
	<path class="st34" d="M1704.5,225.7c3.3-0.3,5.8,0,8.3,0.3c-0.3,1.3-0.6,2.5-0.9,3.8C1709.2,228.7,1706.4,227.5,1704.5,225.7z"/>
	<path class="st34" d="M1661.8,248.5c2.6-2.3,5.1-4.6,7.7-6.9c0.7,0.9,1.5,1.8,2.2,2.8c-2.6,1.3-5.2,2.7-8.8,4.1
		C1661.9,248.5,1661.8,248.5,1661.8,248.5z"/>
	<path class="st33" d="M1643.2,272.5c2.1-2.4,4.8-4.3,7.4-6.2c0.6,0.7,1.3,1.3,1.9,1.9c-2,1.7-4,3.4-6.9,5.5
		C1644.4,273.8,1644.1,273.5,1643.2,272.5z"/>
	<path class="st34" d="M1661.9,248.5c-2.5,1.5-5.1,3.1-7.7,4.6c-0.4-1.1-0.8-2.2-1.2-3.4c2.4-0.6,4.8-1.2,8-1.6
		C1661.8,248.5,1661.9,248.5,1661.9,248.5L1661.9,248.5z"/>
	<path class="st34" d="M1666.9,260.9c-0.9-0.8-1.2-2-1.4-3.3c0-0.2,0.7-0.5,1.1-0.8C1666.9,258,1667.2,259.2,1666.9,260.9z"/>
	<path class="st34" d="M1628.3,261.5c0.9-0.2,2.1,0,2.3,0.7c0.2,0.5-0.7,1.5-1.1,2.2C1629.1,263.6,1628.6,262.9,1628.3,261.5z"/>
	<path class="st34" d="M1675.3,251.2c0.9,0.8,1.2,2,1.4,3.3c0,0.2-0.7,0.5-1.1,0.8C1675.4,254.1,1675.1,252.8,1675.3,251.2z"/>
	<path class="st34" d="M1636.1,260.9c-0.9-0.8-1.2-2-1.4-3.3c0-0.2,0.7-0.5,1.1-0.8C1636,258,1636.3,259.2,1636.1,260.9z"/>
	<path class="st34" d="M1405.7,489.6c0.1,1.3-0.6,2.5-1.4,3.7c-0.5-0.8-1-1.7-1.4-3.2C1403.5,489.4,1404.2,489.5,1405.7,489.6z"/>
	<path class="st33" d="M1600.7,276.3c-2.1,0.5-4.2,1-6.3,1.5c0.9-0.9,1.7-1.9,3.9-2.6C1599.8,275.2,1600.7,276.3,1600.7,276.3z"/>
	<path class="st33" d="M1606.9,273.3c-1.5,0.9-2.9,1.8-5.3,2.9c-0.9,0.1-1.9-0.9-2.3-1.4c1.1-1.3,2.7-2.1,5.6-2.6
		C1606.2,272.4,1606.9,273.3,1606.9,273.3z"/>
	<path class="st33" d="M1605.8,272c1.4-0.8,3.1-1.3,4.8-1.7c-0.7,0.9-1.3,1.7-2.8,2.8C1606.9,273.3,1606.2,272.4,1605.8,272
		L1605.8,272z"/>
	<path class="st33" d="M1657.4,265.7c-0.9,0.1-1.2-0.3-1.5-0.6C1656.6,265.1,1657.3,265.2,1657.4,265.7z"/>
	<path class="st34" d="M1709.6,234.8C1709.8,234.7,1709.4,234.9,1709.6,234.8z"/>
	<path class="st0" d="M557.5,902.3c5.5-3.4,10.9-9.7,16.4-9.8c48.3-0.8,96.6-0.4,144.9-0.5c12.3,0,17.7,5.5,17.5,17.5
		c-0.3,26.6-0.2,53.1,0,79.7c0.1,11-4.5,17.1-17.3,16c-1.4-4.2-1.7-7.2-1.9-11.5c0.1-24.9-0.2-48.4,0.3-71.9
		c0.2-12-4.7-17.1-17.1-17c-41.5,0.4-83.1,0.2-125.4-0.6C568.6,902.9,563.1,902.6,557.5,902.3L557.5,902.3z"/>
	<path class="st38" d="M717,995c0.3,3,0.7,5.9,0.9,10c-47.9,1.3-95.7,1.6-143.5,1.7c-11.7,0-18-5.4-17.9-17.5
		c0.3-28.1,0.3-56.2,0.7-85.6c5.8-1.1,11.3-0.7,17.5,1.8c0.6,23.3,0.5,44.4,0.6,65.5c0.1,18.1,6.1,24.1,24.4,24.1
		C638.9,995.2,678,995.1,717,995z"/>
	<path class="st35" d="M1183,569.8c1.3,7.5-0.9,10.3-8.5,10.1c-21.8-0.6-43.6-0.2-66.8,0.1c-7.1,0-12.8-0.2-19.7-0.4
		c-3.1-6.9-2.5-11.8,6.8-11.7C1123.9,568.3,1153,568.5,1183,569.8z"/>
	<path class="st30" d="M900.7,682.1c-1.3-3.9-1.1-7.3-0.9-12.1c24.6,0,49.1,0,74.9,0c2,3.2,2.5,6.4,3,10.8
		C952.6,682.2,927.4,682.3,900.7,682.1z"/>
</g>
</svg>
