<svg width="584" height="206" viewBox="0 0 584 206" fill="none" xmlns="http://www.w3.org/2000/svg">
<path fill-rule="evenodd" clip-rule="evenodd" d="M583.057 55.9218V62.1349C556.541 63.6993 531.521 74.9421 517.03 93.8037C525.992 78.293 541.869 66.8281 560.613 60.6372C555.339 41.1885 539.593 24.4021 517.326 14.4985C495.288 4.69323 468.935 2.54813 444.761 8.57091C459.223 14.1177 471.146 23.6183 477.639 35.9463C462.131 14.4445 429.806 3.76664 399.008 9.96713C369.112 15.9899 347.98 36.4477 346.783 60.1644H346.955C352.402 60.1453 357.918 60.6055 363.402 61.5765C394.558 67.0947 417.325 87.8032 419.368 112.485C413.404 89.8689 390.903 72.0418 361.827 66.8916C332.751 61.7415 302.469 70.2172 284.377 88.5679C297.248 70.9438 321.119 60.3897 346.45 60.1675C343.743 34.7183 365.059 11.2618 397.265 4.7789C413.638 1.48192 430.327 3.07488 444.572 8.49792C468.378 -2.60202 498.114 -2.84953 522.243 7.88232C546.557 18.703 561.282 38.9418 560.613 60.6372C567.75 58.2763 575.309 56.6833 583.057 55.9218ZM8.94508 224.585H3.49C-4.22914 207.005 1.00035 187.29 17.7511 173.433C28.7925 164.297 43.4556 158.855 58.816 157.579C77.0146 138.181 109.429 130.223 138.755 137.953C168.082 145.683 187.478 167.299 186.584 191.257C189.348 177.71 185.193 164.389 175.953 153.635C175.825 153.489 175.698 153.346 175.571 153.2C183.282 142.078 200.373 136.972 215.75 141.209C215.787 141.367 215.824 141.529 215.861 141.691C217.198 147.149 219.856 152.502 223.912 157.468C211.616 137.334 219.679 113.281 243.066 100.309C266.462 87.3367 298.495 89.155 319.187 104.631C310.841 96.6533 299.68 91.4143 287.663 89.1201C271.519 86.0357 253.833 88.2633 239.35 96.2979C220.524 106.735 211.972 124.283 215.693 140.964C208.49 137.521 199.598 136.871 191.657 139.247C183.733 141.618 177.733 146.714 175.391 152.994C167.274 143.846 155.428 136.63 141.011 132.828C109.478 124.517 74.7875 134.964 58.816 157.579C69.9107 156.656 81.3705 157.909 92.0879 161.514C67.1545 155.425 39.9283 161.305 22.6689 176.498C7.59977 189.775 2.62047 207.97 8.94508 224.585ZM287.663 89.1201C287.659 89.1201 287.659 89.1201 287.659 89.1232L287.663 89.1201ZM444.761 8.57091C444.699 8.54552 444.634 8.52331 444.572 8.49792C444.383 8.5836 444.195 8.67245 444.006 8.7613C444.26 8.69784 444.511 8.63437 444.761 8.57091Z" fill="#FA5B9C"/>
</svg>


