<svg width="26" height="33" viewBox="0 0 26 33" fill="none" xmlns="http://www.w3.org/2000/svg">
    <path d="M13.9423 17.6918C13.6096 17.5131 13.353 17.3615 13.0853 17.2335C9.96494 15.7411 6.20675 17.7843 5.73407 21.2275C5.36153 23.9412 7.04046 26.4599 9.64611 27.0962C12.266 27.7359 14.9199 26.302 15.8124 23.7176C16.0019 23.1687 16.1024 22.5602 16.1041 21.9787C16.1239 14.8254 16.1172 7.67208 16.1191 0.518738C16.1193 -0.0540715 16.0561 0.00764898 16.6287 0.00690649C18.227 0.00486761 19.8253 0.0128699 21.4235 4.73474e-05C21.7066 -0.00222725 21.8028 0.076865 21.7881 0.364607C21.7661 0.795861 21.7775 1.22918 21.784 1.66148C21.7977 2.58474 22.2716 3.22208 23.1386 3.52349C23.9412 3.80249 24.7717 3.80826 25.6043 3.80655C25.992 3.80575 25.9942 3.80482 25.9944 4.1874C25.9953 5.84179 25.9901 7.4962 26 9.15052C26.0015 9.4105 25.9394 9.52866 25.6618 9.57802C24.4801 9.78812 23.3013 9.7969 22.1189 9.60227C22.0452 9.59015 21.9715 9.57809 21.8975 9.56893C21.8802 9.5668 21.8615 9.57671 21.8081 9.58961C21.7999 9.70491 21.7829 9.83141 21.7828 9.95791C21.7814 13.9247 21.8178 17.8919 21.7722 21.8581C21.7199 26.405 19.6692 29.8011 15.6287 31.8322C12.4086 33.4509 9.09469 33.3659 5.88917 31.7072C2.98066 30.2021 1.10697 27.7997 0.323062 24.6064C-1.05534 18.9915 2.10144 13.4215 7.42411 11.6128C9.43274 10.9302 11.4734 10.8764 13.5324 11.3632C13.9443 11.4606 13.9428 11.4624 13.9427 11.8817C13.9422 13.6771 13.9424 15.4725 13.9423 17.2679C13.9423 17.3865 13.9423 17.5052 13.9423 17.6918Z" fill="white"/>
    </svg>
    