<?xml version="1.0" encoding="UTF-8"?>
<!DOCTYPE svg PUBLIC "-//W3C//DTD SVG 1.1//EN" "http://www.w3.org/Graphics/SVG/1.1/DTD/svg11.dtd">
<svg xmlns="http://www.w3.org/2000/svg" version="1.1" width="128px" height="128px" style="shape-rendering:geometricPrecision; text-rendering:geometricPrecision; image-rendering:optimizeQuality; fill-rule:evenodd; clip-rule:evenodd" xmlns:xlink="http://www.w3.org/1999/xlink">
<g><path style="opacity:0.96" fill="#242122" d="M 118.5,-0.5 C 119.833,-0.5 121.167,-0.5 122.5,-0.5C 123.82,37.7572 124.487,76.0905 124.5,114.5C 108.403,109.913 92.4027,104.913 76.5,99.5C 68.176,108.17 60.5093,117.504 53.5,127.5C 52.1667,127.5 50.8333,127.5 49.5,127.5C 45.8265,113.808 41.9931,100.141 38,86.5C 25.2711,81.8681 12.4377,77.5348 -0.5,73.5C -0.5,72.1667 -0.5,70.8333 -0.5,69.5C 39.3392,46.4155 79.0058,23.0821 118.5,-0.5 Z"/></g>
<g><path style="opacity:1" fill="#63b3aa" d="M 117.5,9.5 C 118.167,14.8333 118.833,20.1667 119.5,25.5C 120.551,53.5021 120.551,81.5021 119.5,109.5C 100.118,102.762 80.7845,95.9284 61.5,89C 80.2993,62.5585 98.966,36.0585 117.5,9.5 Z"/></g>
<g><path style="opacity:1" fill="#62b2a9" d="M 103.5,13.5 C 104.239,13.369 104.906,13.5357 105.5,14C 83.8333,36.3333 62.1667,58.6667 40.5,81C 28.8928,78.912 17.5595,75.5787 6.5,71C 38.8966,51.8071 71.2299,32.6405 103.5,13.5 Z"/></g>
<g><path style="opacity:1" fill="#497873" d="M 119.5,25.5 C 118.833,20.1667 118.167,14.8333 117.5,9.5C 117.783,8.71087 118.283,8.0442 119,7.5C 119.499,13.4908 119.666,19.4908 119.5,25.5 Z"/></g>
<g><path style="opacity:1" fill="#3c6a65" d="M 102.5,22.5 C 103.525,22.8966 103.692,23.5632 103,24.5C 87.6667,45.8333 72.3333,67.1667 57,88.5C 54.8753,97.4551 52.8753,106.455 51,115.5C 47.4827,104.967 44.816,94.3 43,83.5C 63.3988,63.6027 83.2321,43.2694 102.5,22.5 Z"/></g>
<g><path style="opacity:1" fill="#3b6964" d="M 59.5,93.5 C 63.5701,94.3559 67.5701,95.5226 71.5,97C 66.3333,103.5 61.1667,110 56,116.5C 56.6494,108.789 57.8161,101.123 59.5,93.5 Z"/></g>
</svg>
