<svg version="1.1" id="Layer_1" xmlns="http://www.w3.org/2000/svg" xmlns:xlink="http://www.w3.org/1999/xlink" x="0px" y="0px"
	 width="100%" viewBox="0 0 920 653" enable-background="new 0 0 920 653" xml:space="preserve">
<path fill="#FAD3C1" opacity="1.000000" stroke="none" 
	d="
M921.000000,165.000000 
	C921.000000,327.956665 921.000000,490.913330 921.000000,653.934998 
	C614.333313,653.934998 307.666656,653.934998 1.000000,653.934998 
	C1.000000,590.558228 1.000000,527.241760 1.302812,463.320007 
	C4.862647,459.873566 8.345686,457.250977 11.339183,454.155060 
	C27.998266,436.925903 44.542191,419.585327 61.108860,402.266998 
	C61.908966,401.430603 62.554531,400.445923 63.267788,399.526978 
	C81.408798,376.155121 99.212463,352.511108 117.784187,329.486664 
	C136.472427,306.317780 160.134171,290.707275 190.054550,285.933899 
	C203.982758,283.711853 218.070541,282.386932 231.911484,279.742065 
	C261.257996,274.134186 288.356445,262.144897 314.916870,248.933517 
	C329.220428,241.818817 343.116241,233.881180 357.450684,226.832672 
	C375.590454,217.913010 395.081146,217.319260 414.579803,219.851913 
	C426.849548,221.445618 437.904114,227.251358 448.879791,232.916046 
	C462.448669,239.919128 475.898926,245.823196 492.330170,244.498352 
	C504.895416,243.485214 515.658691,239.625870 525.931885,233.497711 
	C540.643555,224.722015 552.190308,212.147430 564.379517,200.326218 
	C568.154480,196.665161 573.249878,193.806961 578.257446,192.075638 
	C596.506958,185.766098 615.793396,185.817612 634.745422,184.054092 
	C653.600159,182.299637 671.491516,188.014221 688.895874,193.798065 
	C713.404724,201.942886 738.219238,207.266129 763.986389,207.835938 
	C774.112427,208.059860 784.282959,207.643082 794.391357,206.926819 
	C805.618713,206.131271 816.942566,205.424850 827.971680,203.341660 
	C861.566223,196.996307 892.472107,183.803284 921.000000,165.000000 
z"/>
<path fill="#5FD8E3" opacity="1.000000" stroke="none" 
	d="
M1.000000,352.000000 
	C1.000000,294.645782 1.000000,237.291550 1.468421,179.485596 
	C15.351641,178.384201 28.789324,178.034180 42.175671,177.011948 
	C60.527973,175.610489 79.020752,174.771408 97.127213,171.742065 
	C121.250237,167.706116 140.932510,155.398468 153.844421,134.060806 
	C162.876678,119.134506 171.189102,103.770119 179.723358,88.545517 
	C194.874557,61.516689 215.617630,39.681126 240.941452,22.001055 
	C250.739288,15.160612 260.320251,8.009554 270.000000,1.000001 
	C381.020905,1.000000 492.041779,1.000000 603.760071,1.268710 
	C608.340881,2.989488 612.175903,4.590540 616.115784,5.868545 
	C636.181641,12.377452 656.353577,18.568956 676.335693,25.323181 
	C696.263245,32.058922 716.481201,36.790989 737.628784,37.074966 
	C760.905884,37.387539 783.980896,35.692581 806.831360,31.082436 
	C812.160889,30.007210 817.609924,29.524643 823.415894,28.836720 
	C825.215454,28.864061 826.603088,28.824078 828.418274,28.814528 
	C830.560059,28.832073 832.274170,28.819183 834.363403,28.867588 
	C835.494629,28.887205 836.250793,28.845528 837.474243,28.830578 
	C865.627747,28.904873 893.313843,28.952436 921.000000,29.000000 
	C921.000000,45.354229 921.000000,61.708454 920.659058,78.568939 
	C918.554260,80.572189 916.657288,81.939133 915.047607,83.586670 
	C902.044312,96.895401 887.617310,108.379013 871.169189,117.116249 
	C860.628601,122.715439 849.574951,127.548996 837.312988,123.830284 
	C831.012634,121.919540 824.836243,119.061859 819.178406,115.672859 
	C803.175659,106.087433 785.795898,103.292152 767.728516,105.295837 
	C749.390686,107.329521 731.317566,106.998734 713.412476,102.631226 
	C690.542969,97.052742 667.923218,90.224625 644.829590,85.883179 
	C632.671997,83.597626 619.632324,84.433968 607.173706,85.683380 
	C587.951782,87.611061 574.179932,99.523926 562.159241,113.689804 
	C554.150574,123.127670 545.817810,132.244110 534.211670,137.390854 
	C527.962402,140.162109 521.473145,141.066391 514.823730,138.506760 
	C506.362061,135.249527 499.768127,129.627029 493.852844,122.873955 
	C489.033478,117.371941 484.175720,111.662514 478.364960,107.352966 
	C474.358582,104.381622 468.804260,102.693420 463.750000,102.119202 
	C455.238586,101.152199 448.764771,106.461060 442.286011,111.233101 
	C439.116150,113.567886 435.777924,115.896614 432.164764,117.362686 
	C423.513245,120.873131 414.779297,119.156006 406.257690,116.519112 
	C382.224060,109.082191 359.968628,112.952225 340.214233,128.133438 
	C329.569275,136.314087 320.033875,145.977798 310.280334,155.268875 
	C299.027161,165.988510 287.624146,176.691071 273.250397,182.884399 
	C254.565521,190.935303 234.908524,193.619812 214.402298,192.233536 
	C194.718536,190.902863 174.887375,190.407639 155.179520,191.133698 
	C132.716156,191.961273 114.608208,202.271179 102.270844,221.346756 
	C96.318420,230.550171 90.930122,240.186020 86.081871,250.018326 
	C80.475418,261.388214 73.137238,270.539886 60.711899,274.655945 
	C56.142521,276.169647 51.577881,277.736420 46.926548,278.956848 
	C31.641071,282.967560 18.028650,289.711212 12.446574,305.530975 
	C9.295148,314.462250 8.626839,324.288788 7.035918,333.744995 
	C5.955904,340.164459 6.840979,347.175018 1.000000,352.000000 
M479.384857,52.673607 
	C479.307190,52.081169 479.229553,51.488731 478.790619,50.310566 
	C477.308472,49.264553 475.916473,48.050720 474.330139,47.198643 
	C459.328308,39.140644 435.348541,46.363110 424.136963,57.698040 
	C423.102051,58.744331 423.474518,61.182739 423.193481,62.974739 
	C424.797546,62.739460 426.645355,62.938999 427.966187,62.198502 
	C436.706726,57.298340 445.369080,52.466602 455.921600,52.812031 
	C463.567291,53.062309 471.228394,52.843075 479.384857,52.673607 
M503.400085,79.076111 
	C493.485840,70.977135 483.084412,64.482910 469.589508,63.658466 
	C453.437683,62.671692 439.599915,66.741226 427.583344,77.838402 
	C422.656311,82.388496 416.610626,85.758141 410.928406,89.440445 
	C409.260498,90.521309 407.093445,90.831917 404.196777,91.823677 
	C410.114197,96.723351 416.012299,98.455490 422.029999,96.362923 
	C431.736145,92.987785 441.040100,88.475441 450.642426,84.777031 
	C460.236694,81.081764 469.873657,80.400421 479.689056,84.694519 
	C488.398193,88.504646 494.583557,95.043686 500.702484,101.914093 
	C504.257202,105.905350 506.987946,105.766380 511.691559,102.560196 
	C515.628479,99.876671 516.205017,96.317642 513.765747,92.626099 
	C510.764679,88.084259 507.226410,83.897400 503.400085,79.076111 
M825.649414,81.018723 
	C820.085999,79.356453 814.558594,77.560143 808.952332,76.057640 
	C793.549744,71.929634 778.041504,72.226952 762.540466,75.427811 
	C753.445801,77.305794 744.383728,79.352547 735.345154,81.485062 
	C732.155579,82.237602 730.137695,84.793495 731.322510,87.781364 
	C731.952515,89.370041 734.955383,90.234032 737.050903,90.938103 
	C738.173096,91.315132 739.638245,90.625198 740.955383,90.475769 
	C748.540527,89.615257 756.113464,88.328056 763.719360,88.083069 
	C768.613953,87.925423 773.551025,89.363808 778.481445,89.988983 
	C788.672424,91.281174 798.931458,92.153015 809.051697,93.856056 
	C820.416382,95.768517 831.647949,97.614632 843.034119,94.149948 
	C846.345703,93.142265 848.154968,91.350342 848.112793,87.762459 
	C848.070557,84.172630 845.479431,83.290352 842.817017,82.902328 
	C837.409607,82.114250 831.954590,81.652985 825.649414,81.018723 
M259.837097,171.516815 
	C276.926910,163.986572 290.032104,151.796112 300.432953,136.534729 
	C301.302734,135.258499 301.083038,133.239777 301.369507,131.566010 
	C299.643555,131.689621 297.906006,131.733200 296.197876,131.980118 
	C295.597809,132.066864 295.049957,132.625061 294.511963,133.014526 
	C284.685028,140.128906 274.836731,147.214142 265.047546,154.380127 
	C254.447495,162.139709 244.172119,170.575089 230.918198,173.427582 
	C221.242966,175.509857 211.438751,176.992813 201.097122,178.849762 
	C203.445709,183.766617 207.712616,182.024261 210.983902,181.806412 
	C227.472321,180.708420 243.458664,177.009308 259.837097,171.516815 
z"/>
<path fill="#C1FDFB" opacity="1.000000" stroke="none" 
	d="
M1.000000,352.468658 
	C6.840979,347.175018 5.955904,340.164459 7.035918,333.744995 
	C8.626839,324.288788 9.295148,314.462250 12.446574,305.530975 
	C18.028650,289.711212 31.641071,282.967560 46.926548,278.956848 
	C51.577881,277.736420 56.142521,276.169647 60.711899,274.655945 
	C73.137238,270.539886 80.475418,261.388214 86.081871,250.018326 
	C90.930122,240.186020 96.318420,230.550171 102.270844,221.346756 
	C114.608208,202.271179 132.716156,191.961273 155.179520,191.133698 
	C174.887375,190.407639 194.718536,190.902863 214.402298,192.233536 
	C234.908524,193.619812 254.565521,190.935303 273.250397,182.884399 
	C287.624146,176.691071 299.027161,165.988510 310.280334,155.268875 
	C320.033875,145.977798 329.569275,136.314087 340.214233,128.133438 
	C359.968628,112.952225 382.224060,109.082191 406.257690,116.519112 
	C414.779297,119.156006 423.513245,120.873131 432.164764,117.362686 
	C435.777924,115.896614 439.116150,113.567886 442.286011,111.233101 
	C448.764771,106.461060 455.238586,101.152199 463.750000,102.119202 
	C468.804260,102.693420 474.358582,104.381622 478.364960,107.352966 
	C484.175720,111.662514 489.033478,117.371941 493.852844,122.873955 
	C499.768127,129.627029 506.362061,135.249527 514.823730,138.506760 
	C521.473145,141.066391 527.962402,140.162109 534.211670,137.390854 
	C545.817810,132.244110 554.150574,123.127670 562.159241,113.689804 
	C574.179932,99.523926 587.951782,87.611061 607.173706,85.683380 
	C619.632324,84.433968 632.671997,83.597626 644.829590,85.883179 
	C667.923218,90.224625 690.542969,97.052742 713.412476,102.631226 
	C731.317566,106.998734 749.390686,107.329521 767.728516,105.295837 
	C785.795898,103.292152 803.175659,106.087433 819.178406,115.672859 
	C824.836243,119.061859 831.012634,121.919540 837.312988,123.830284 
	C849.574951,127.548996 860.628601,122.715439 871.169189,117.116249 
	C887.617310,108.379013 902.044312,96.895401 915.047607,83.586670 
	C916.657288,81.939133 918.554260,80.572189 920.659058,79.037598 
	C921.000000,107.354225 921.000000,135.708450 921.000000,164.531342 
	C892.472107,183.803284 861.566223,196.996307 827.971680,203.341660 
	C816.942566,205.424850 805.618713,206.131271 794.391357,206.926819 
	C784.282959,207.643082 774.112427,208.059860 763.986389,207.835938 
	C738.219238,207.266129 713.404724,201.942886 688.895874,193.798065 
	C671.491516,188.014221 653.600159,182.299637 634.745422,184.054092 
	C615.793396,185.817612 596.506958,185.766098 578.257446,192.075638 
	C573.249878,193.806961 568.154480,196.665161 564.379517,200.326218 
	C552.190308,212.147430 540.643555,224.722015 525.931885,233.497711 
	C515.658691,239.625870 504.895416,243.485214 492.330170,244.498352 
	C475.898926,245.823196 462.448669,239.919128 448.879791,232.916046 
	C437.904114,227.251358 426.849548,221.445618 414.579803,219.851913 
	C395.081146,217.319260 375.590454,217.913010 357.450684,226.832672 
	C343.116241,233.881180 329.220428,241.818817 314.916870,248.933517 
	C288.356445,262.144897 261.257996,274.134186 231.911484,279.742065 
	C218.070541,282.386932 203.982758,283.711853 190.054550,285.933899 
	C160.134171,290.707275 136.472427,306.317780 117.784187,329.486664 
	C99.212463,352.511108 81.408798,376.155121 63.267788,399.526978 
	C62.554531,400.445923 61.908966,401.430603 61.108860,402.266998 
	C44.542191,419.585327 27.998266,436.925903 11.339183,454.155060 
	C8.345686,457.250977 4.862647,459.873566 1.302812,462.857361 
	C1.000000,446.645782 1.000000,430.291534 1.307669,413.335449 
	C9.320764,404.738831 17.611811,397.219818 24.588190,388.632782 
	C33.996334,377.052490 43.122105,365.087189 48.080151,350.675781 
	C50.817268,342.719940 51.410919,334.750336 47.397865,326.979218 
	C43.932304,320.268341 39.104042,319.406281 33.302551,324.275391 
	C27.164160,329.427277 23.843460,336.168579 22.037781,343.798004 
	C20.279411,351.227509 18.925091,358.780060 16.687382,366.061615 
	C14.005235,374.789429 9.253370,382.289215 1.000000,387.000000 
	C1.000000,375.645782 1.000000,364.291534 1.000000,352.468658 
M160.998581,272.486786 
	C181.463531,265.811371 202.488678,261.377686 223.821945,259.237274 
	C245.951874,257.016937 266.218811,249.602600 285.825867,239.944473 
	C298.787628,233.559708 311.041046,225.707718 324.113159,219.583130 
	C342.728821,210.861252 360.741699,200.445572 381.368500,196.672012 
	C382.092468,196.539566 382.734436,195.958603 384.033661,195.248199 
	C368.244904,183.867126 351.156433,179.719193 332.752716,182.731537 
	C317.177795,185.280869 305.986786,195.424973 296.024017,207.002899 
	C288.467072,215.784988 279.349152,222.616943 268.029266,225.232681 
	C260.993591,226.858444 253.504700,226.563568 246.212738,227.029358 
	C235.931122,227.686127 225.593460,227.881332 216.784058,234.527069 
	C214.704269,236.096039 211.941971,236.727112 209.598648,237.985199 
	C189.526550,248.761490 169.411331,259.461243 149.482895,270.497894 
	C145.702927,272.591278 142.692230,276.073730 139.326599,278.915283 
	C139.597961,279.238098 139.869324,279.560944 140.140686,279.883759 
	C146.846191,277.513611 153.551712,275.143463 160.998581,272.486786 
M875.694031,165.149216 
	C883.601807,161.722382 891.578857,158.415512 898.088379,152.460800 
	C897.113892,152.132172 896.250488,152.051636 895.535706,152.339813 
	C891.370850,154.019119 887.169556,155.633575 883.110840,157.546417 
	C858.491577,169.149200 832.387085,175.948425 805.539307,178.615982 
	C774.499695,181.700027 744.371704,176.515533 716.594177,161.634933 
	C703.422424,154.578766 691.096313,145.961914 678.106873,138.542755 
	C666.017029,131.637482 653.352478,131.397034 640.084106,135.824921 
	C624.576538,141.000092 612.547424,150.998779 600.845886,161.715088 
	C598.470215,163.890686 595.972717,165.933182 592.484741,168.939026 
	C600.694763,168.939026 607.449036,169.039429 614.199219,168.916306 
	C625.322266,168.713425 636.517578,167.410263 647.548828,168.275192 
	C671.746521,170.172455 695.782837,173.840256 719.128052,180.651871 
	C744.608032,188.086380 770.662476,189.860306 796.724243,187.626022 
	C824.019531,185.285995 850.193176,177.384186 875.694031,165.149216 
M473.079468,133.412827 
	C461.291473,123.258118 448.831116,121.381325 434.612030,133.432251 
	C422.225525,143.930054 408.336700,150.097748 391.400055,146.180405 
	C388.444275,145.496750 384.715027,146.550781 381.757477,147.790833 
	C373.771118,151.139389 372.066864,160.254196 379.140503,165.247360 
	C388.780823,172.052261 399.723419,176.273392 411.950653,172.838104 
	C419.624054,170.682251 427.042419,167.535797 434.783997,165.727478 
	C443.431213,163.707581 451.662506,164.333649 458.899200,171.070923 
	C462.928345,174.822037 468.199768,177.437637 473.259888,179.826843 
	C478.375580,182.242310 483.870544,181.896698 488.246185,177.948898 
	C492.816956,173.825073 494.155487,168.292801 492.546143,162.405365 
	C489.389740,150.858185 483.371460,141.094360 473.079468,133.412827 
M165.358307,250.810226 
	C182.170700,242.428848 198.983093,234.047470 215.795486,225.666092 
	C215.673523,225.122849 215.551575,224.579605 215.429611,224.036362 
	C213.583450,223.694565 211.744080,223.109299 209.889832,223.057556 
	C204.733063,222.913620 199.555923,223.233963 194.412476,222.932861 
	C182.366806,222.227783 171.584839,225.407394 161.312805,231.757339 
	C145.091324,241.785156 129.663101,252.565887 118.283340,268.261200 
	C107.108864,283.673340 98.017159,300.245941 90.484909,317.687347 
	C89.884888,319.076721 90.405815,320.950195 90.405815,322.598694 
	C102.288376,309.567078 112.670792,295.823944 123.938477,282.849670 
	C135.371002,269.685577 149.616302,259.789215 165.358307,250.810226 
z"/>
<path fill="#00B3CA" opacity="1.000000" stroke="none" 
	d="
M269.531342,1.000001 
	C260.320251,8.009554 250.739288,15.160612 240.941452,22.001055 
	C215.617630,39.681126 194.874557,61.516689 179.723358,88.545517 
	C171.189102,103.770119 162.876678,119.134506 153.844421,134.060806 
	C140.932510,155.398468 121.250237,167.706116 97.127213,171.742065 
	C79.020752,174.771408 60.527973,175.610489 42.175671,177.011948 
	C28.789324,178.034180 15.351641,178.384201 1.468421,179.016937 
	C1.000000,119.724777 1.000000,60.449558 1.000000,1.000000 
	C90.354149,1.000000 179.708420,1.000000 269.531342,1.000001 
z"/>
<path fill="#00B3CA" opacity="1.000000" stroke="none" 
	d="
M823.003967,28.769398 
	C817.609924,29.524643 812.160889,30.007210 806.831360,31.082436 
	C783.980896,35.692581 760.905884,37.387539 737.628784,37.074966 
	C716.481201,36.790989 696.263245,32.058922 676.335693,25.323181 
	C656.353577,18.568956 636.181641,12.377452 616.115784,5.868545 
	C612.175903,4.590540 608.340881,2.989488 604.228760,1.268710 
	C709.666687,1.000000 815.333374,1.000000 921.000000,1.000000 
	C921.000000,10.085538 921.000000,19.074110 921.000000,28.531342 
	C893.313843,28.952436 865.627747,28.904873 837.259216,28.644619 
	C835.713989,28.556717 834.851196,28.681505 833.988342,28.806293 
	C832.274170,28.819183 830.560059,28.832073 828.152893,28.614029 
	C825.974609,28.511866 824.489258,28.640633 823.003967,28.769398 
z"/>
<path fill="#F9D4C2" opacity="1.000000" stroke="none" 
	d="
M1.000000,387.468658 
	C9.253370,382.289215 14.005235,374.789429 16.687382,366.061615 
	C18.925091,358.780060 20.279411,351.227509 22.037781,343.798004 
	C23.843460,336.168579 27.164160,329.427277 33.302551,324.275391 
	C39.104042,319.406281 43.932304,320.268341 47.397865,326.979218 
	C51.410919,334.750336 50.817268,342.719940 48.080151,350.675781 
	C43.122105,365.087189 33.996334,377.052490 24.588190,388.632782 
	C17.611811,397.219818 9.320764,404.738831 1.307669,412.866821 
	C1.000000,404.645782 1.000000,396.291534 1.000000,387.468658 
z"/>
<path fill="#BFFDFB" opacity="1.000000" stroke="none" 
	d="
M503.660187,79.316620 
	C507.226410,83.897400 510.764679,88.084259 513.765747,92.626099 
	C516.205017,96.317642 515.628479,99.876671 511.691559,102.560196 
	C506.987946,105.766380 504.257202,105.905350 500.702484,101.914093 
	C494.583557,95.043686 488.398193,88.504646 479.689056,84.694519 
	C469.873657,80.400421 460.236694,81.081764 450.642426,84.777031 
	C441.040100,88.475441 431.736145,92.987785 422.029999,96.362923 
	C416.012299,98.455490 410.114197,96.723351 404.196777,91.823677 
	C407.093445,90.831917 409.260498,90.521309 410.928406,89.440445 
	C416.610626,85.758141 422.656311,82.388496 427.583344,77.838402 
	C439.599915,66.741226 453.437683,62.671692 469.589508,63.658466 
	C483.084412,64.482910 493.485840,70.977135 503.660187,79.316620 
z"/>
<path fill="#BFFDFB" opacity="1.000000" stroke="none" 
	d="
M826.084290,81.037872 
	C831.954590,81.652985 837.409607,82.114250 842.817017,82.902328 
	C845.479431,83.290352 848.070557,84.172630 848.112793,87.762459 
	C848.154968,91.350342 846.345703,93.142265 843.034119,94.149948 
	C831.647949,97.614632 820.416382,95.768517 809.051697,93.856056 
	C798.931458,92.153015 788.672424,91.281174 778.481445,89.988983 
	C773.551025,89.363808 768.613953,87.925423 763.719360,88.083069 
	C756.113464,88.328056 748.540527,89.615257 740.955383,90.475769 
	C739.638245,90.625198 738.173096,91.315132 737.050903,90.938103 
	C734.955383,90.234032 731.952515,89.370041 731.322510,87.781364 
	C730.137695,84.793495 732.155579,82.237602 735.345154,81.485062 
	C744.383728,79.352547 753.445801,77.305794 762.540466,75.427811 
	C778.041504,72.226952 793.549744,71.929634 808.952332,76.057640 
	C814.558594,77.560143 820.085999,79.356453 826.084290,81.037872 
z"/>
<path fill="#BEFCFB" opacity="1.000000" stroke="none" 
	d="
M259.473999,171.654938 
	C243.458664,177.009308 227.472321,180.708420 210.983902,181.806412 
	C207.712616,182.024261 203.445709,183.766617 201.097122,178.849762 
	C211.438751,176.992813 221.242966,175.509857 230.918198,173.427582 
	C244.172119,170.575089 254.447495,162.139709 265.047546,154.380127 
	C274.836731,147.214142 284.685028,140.128906 294.511963,133.014526 
	C295.049957,132.625061 295.597809,132.066864 296.197876,131.980118 
	C297.906006,131.733200 299.643555,131.689621 301.369507,131.566010 
	C301.083038,133.239777 301.302734,135.258499 300.432953,136.534729 
	C290.032104,151.796112 276.926910,163.986572 259.473999,171.654938 
z"/>
<path fill="#BEFCFB" opacity="1.000000" stroke="none" 
	d="
M478.882599,52.833206 
	C471.228394,52.843075 463.567291,53.062309 455.921600,52.812031 
	C445.369080,52.466602 436.706726,57.298340 427.966187,62.198502 
	C426.645355,62.938999 424.797546,62.739460 423.193481,62.974739 
	C423.474518,61.182739 423.102051,58.744331 424.136963,57.698040 
	C435.348541,46.363110 459.328308,39.140644 474.330139,47.198643 
	C475.916473,48.050720 477.308472,49.264553 478.921204,50.926979 
	C478.995392,51.973331 478.938995,52.403271 478.882599,52.833206 
z"/>
<path fill="#1AC4D7" opacity="1.000000" stroke="none" 
	d="
M823.415894,28.836723 
	C824.489258,28.640633 825.974609,28.511866 827.725281,28.583595 
	C826.603088,28.824078 825.215454,28.864061 823.415894,28.836723 
z"/>
<path fill="#1AC4D7" opacity="1.000000" stroke="none" 
	d="
M834.363403,28.867588 
	C834.851196,28.681505 835.713989,28.556717 836.791870,28.617889 
	C836.250793,28.845528 835.494629,28.887205 834.363403,28.867588 
z"/>
<path fill="#97EDF1" opacity="1.000000" stroke="none" 
	d="
M479.133728,52.753410 
	C478.938995,52.403271 478.995392,51.973331 479.101868,51.219845 
	C479.229553,51.488731 479.307190,52.081169 479.133728,52.753410 
z"/>
<path fill="#F9D4C2" opacity="1.000000" stroke="none" 
	d="
M160.627899,272.630035 
	C153.551712,275.143463 146.846191,277.513611 140.140686,279.883759 
	C139.869324,279.560944 139.597961,279.238098 139.326599,278.915283 
	C142.692230,276.073730 145.702927,272.591278 149.482895,270.497894 
	C169.411331,259.461243 189.526550,248.761490 209.598648,237.985199 
	C211.941971,236.727112 214.704269,236.096039 216.784058,234.527069 
	C225.593460,227.881332 235.931122,227.686127 246.212738,227.029358 
	C253.504700,226.563568 260.993591,226.858444 268.029266,225.232681 
	C279.349152,222.616943 288.467072,215.784988 296.024017,207.002899 
	C305.986786,195.424973 317.177795,185.280869 332.752716,182.731537 
	C351.156433,179.719193 368.244904,183.867126 384.033661,195.248199 
	C382.734436,195.958603 382.092468,196.539566 381.368500,196.672012 
	C360.741699,200.445572 342.728821,210.861252 324.113159,219.583130 
	C311.041046,225.707718 298.787628,233.559708 285.825867,239.944473 
	C266.218811,249.602600 245.951874,257.016937 223.821945,259.237274 
	C202.488678,261.377686 181.463531,265.811371 160.627899,272.630035 
z"/>
<path fill="#F9D4C2" opacity="1.000000" stroke="none" 
	d="
M875.356323,165.322968 
	C850.193176,177.384186 824.019531,185.285995 796.724243,187.626022 
	C770.662476,189.860306 744.608032,188.086380 719.128052,180.651871 
	C695.782837,173.840256 671.746521,170.172455 647.548828,168.275192 
	C636.517578,167.410263 625.322266,168.713425 614.199219,168.916306 
	C607.449036,169.039429 600.694763,168.939026 592.484741,168.939026 
	C595.972717,165.933182 598.470215,163.890686 600.845886,161.715088 
	C612.547424,150.998779 624.576538,141.000092 640.084106,135.824921 
	C653.352478,131.397034 666.017029,131.637482 678.106873,138.542755 
	C691.096313,145.961914 703.422424,154.578766 716.594177,161.634933 
	C744.371704,176.515533 774.499695,181.700027 805.539307,178.615982 
	C832.387085,175.948425 858.491577,169.149200 883.110840,157.546417 
	C887.169556,155.633575 891.370850,154.019119 895.535706,152.339813 
	C896.250488,152.051636 897.113892,152.132172 898.088379,152.460800 
	C891.578857,158.415512 883.601807,161.722382 875.356323,165.322968 
z"/>
<path fill="#FAD3C2" opacity="1.000000" stroke="none" 
	d="
M473.376099,133.613297 
	C483.371460,141.094360 489.389740,150.858185 492.546143,162.405365 
	C494.155487,168.292801 492.816956,173.825073 488.246185,177.948898 
	C483.870544,181.896698 478.375580,182.242310 473.259888,179.826843 
	C468.199768,177.437637 462.928345,174.822037 458.899200,171.070923 
	C451.662506,164.333649 443.431213,163.707581 434.783997,165.727478 
	C427.042419,167.535797 419.624054,170.682251 411.950653,172.838104 
	C399.723419,176.273392 388.780823,172.052261 379.140503,165.247360 
	C372.066864,160.254196 373.771118,151.139389 381.757477,147.790833 
	C384.715027,146.550781 388.444275,145.496750 391.400055,146.180405 
	C408.336700,150.097748 422.225525,143.930054 434.612030,133.432251 
	C448.831116,121.381325 461.291473,123.258118 473.376099,133.613297 
z"/>
<path fill="#F9D4C2" opacity="1.000000" stroke="none" 
	d="
M165.036392,250.984787 
	C149.616302,259.789215 135.371002,269.685577 123.938477,282.849670 
	C112.670792,295.823944 102.288376,309.567078 90.405815,322.598694 
	C90.405815,320.950195 89.884888,319.076721 90.484909,317.687347 
	C98.017159,300.245941 107.108864,283.673340 118.283340,268.261200 
	C129.663101,252.565887 145.091324,241.785156 161.312805,231.757339 
	C171.584839,225.407394 182.366806,222.227783 194.412476,222.932861 
	C199.555923,223.233963 204.733063,222.913620 209.889832,223.057556 
	C211.744080,223.109299 213.583450,223.694565 215.429611,224.036362 
	C215.551575,224.579605 215.673523,225.122849 215.795486,225.666092 
	C198.983093,234.047470 182.170700,242.428848 165.036392,250.984787 
z"/>
</svg>